<svg width="17" height="17" viewBox="0 0 17 17" fill="none" xmlns="http://www.w3.org/2000/svg">
<g clip-path="url(#clip0_7210_16556)">
<path d="M5.66459 7.69197H5.27792C4.75026 7.6729 4.2243 7.76247 3.7327 7.95514C3.2411 8.1478 2.79434 8.43945 2.42014 8.81197L2.31348 8.93641V12.6164H4.12681V10.5275L4.37125 10.252L4.48237 10.1231C5.061 9.52864 5.78138 9.09121 6.5757 8.85197C6.17815 8.54922 5.86453 8.14993 5.66459 7.69197Z" fill="#565656"/>
<path d="M14.2604 8.80025C13.8862 8.42773 13.4395 8.13609 12.9478 7.94342C12.4562 7.75076 11.9303 7.66118 11.4026 7.68025C11.2408 7.68111 11.0791 7.69001 10.9182 7.70692C10.7145 8.13655 10.4095 8.51025 10.0293 8.7958C10.8774 9.0302 11.6456 9.49113 12.2515 10.1291L12.3626 10.2536L12.6026 10.5291V12.6225H14.3537V8.92469L14.2604 8.80025Z" fill="#565656"/>
<path d="M5.26401 6.82676H5.40178C5.33777 6.27709 5.43422 5.72064 5.67949 5.22458C5.92476 4.72852 6.30837 4.31405 6.78401 4.03121C6.61159 3.76781 6.37372 3.5537 6.0937 3.40985C5.81367 3.266 5.50109 3.19734 5.18656 3.2106C4.87202 3.22385 4.56632 3.31857 4.29939 3.48546C4.03246 3.65236 3.81345 3.88572 3.66381 4.1627C3.51416 4.43967 3.43902 4.75076 3.44573 5.0655C3.45243 5.38024 3.54077 5.68784 3.70208 5.95819C3.86338 6.22853 4.09214 6.45235 4.36594 6.60772C4.63974 6.7631 4.94919 6.8447 5.26401 6.84454V6.82676Z" fill="#565656"/>
<path d="M11.1886 6.49354C11.1936 6.5957 11.1936 6.69805 11.1886 6.80021C11.2739 6.81387 11.36 6.82129 11.4464 6.82243H11.5308C11.8443 6.80572 12.148 6.70813 12.4125 6.53918C12.6771 6.37022 12.8933 6.13565 13.0403 5.8583C13.1872 5.58096 13.2599 5.27028 13.2511 4.95653C13.2424 4.64278 13.1525 4.33664 12.9903 4.06792C12.8281 3.7992 12.5991 3.57705 12.3256 3.42311C12.0521 3.26916 11.7433 3.18867 11.4295 3.18946C11.1156 3.19025 10.8073 3.2723 10.5345 3.42761C10.2618 3.58293 10.0339 3.80623 9.87305 4.07576C10.2753 4.3384 10.6061 4.69679 10.8357 5.11877C11.0653 5.54076 11.1866 6.01314 11.1886 6.49354Z" fill="#565656"/>
<path d="M8.2728 8.4831C9.37001 8.4831 10.2595 7.59364 10.2595 6.49643C10.2595 5.39923 9.37001 4.50977 8.2728 4.50977C7.17559 4.50977 6.28613 5.39923 6.28613 6.49643C6.28613 7.59364 7.17559 8.4831 8.2728 8.4831Z" fill="#565656"/>
<path d="M8.37951 9.54109C7.79911 9.51792 7.22002 9.61227 6.677 9.81848C6.13397 10.0247 5.63822 10.3385 5.21951 10.7411L5.1084 10.8655V13.6789C5.11013 13.7705 5.1299 13.8609 5.16658 13.9449C5.20326 14.0289 5.25613 14.1048 5.32216 14.1684C5.3882 14.232 5.46611 14.2819 5.55145 14.3153C5.63678 14.3488 5.72787 14.3651 5.81951 14.3633H10.9262C11.0178 14.3651 11.1089 14.3488 11.1942 14.3153C11.2796 14.2819 11.3575 14.232 11.4235 14.1684C11.4896 14.1048 11.5424 14.0289 11.5791 13.9449C11.6158 13.8609 11.6356 13.7705 11.6373 13.6789V10.8744L11.5306 10.7411C11.1148 10.3371 10.6208 10.0222 10.0789 9.81587C9.53707 9.60952 8.95878 9.51602 8.37951 9.54109Z" fill="#565656"/>
</g>
<defs>
<clipPath id="clip0_7210_16556">
<rect width="16" height="16" fill="white" transform="translate(0.331055 0.519531)"/>
</clipPath>
</defs>
</svg>
