<svg xmlns="http://www.w3.org/2000/svg" width="358.951" height="33.79" viewBox="0 0 358.951 33.79">
  <path id="Path_5845" data-name="Path 5845" d="M358.951,2.5V1.951l-5.66.122-6.637-.122V2.5c4.93.244,6.15,2.132,6.15,7.368V21.127c0,6.819-2.254,10.653-8.889,10.653-6.15,0-7.793-3.956-7.793-10.166V6.881c0-3.715,1.215-4.2,4.505-4.383V1.951l-7.187.122-7.3-.122V2.5c3.288.184,4.5.609,4.5,4.383v16.5c0,7.79,6.394,9.616,12.3,9.616,6.943,0,11.143-3.409,11.143-11.324V9.866c0-3.783.235-6.4,3.35-7.157Zm-40,15.282-.1,2.688c-.472,5.987-2.7,9.934-8.241,10.947a10.478,10.478,0,0,1-2.495.184c-3.044-.062-4.2-1.4-4.2-4.749V3.288a13.592,13.592,0,0,1,2.738-.3c7.935,0,11.8,5.3,12.253,13.183l.045,1.613m1.007,11.5,1-.855c2.533-2.426,4.024-6.049,4.024-11.252,0-11.083-7.974-15.22-17.168-15.22l-6.453.122-7.49-.122V2.5c3.35.184,4.508.609,4.508,4.443v20.7c0,3.775-1.221,4.2-4.508,4.446v.487l7.43-.122c1.7,0,3.409.122,5.111.181a24.491,24.491,0,0,0,4.265-.122,19.353,19.353,0,0,0,8.191-2.483l1.093-.748M292.288,2.5V1.951l-5.055.122L280.9,1.951V2.5c4.992.184,5.723,3.288,5.723,8.1V26.666L265.988,2.011h-7.977V2.56a7.92,7.92,0,0,1,2.679.425c2.557,1.033,2.8,4.627,2.8,7.184V23.927c0,3.956,0,7.852-4.443,8.158v.487c1.7-.062,3.469-.184,5.173-.184,2.07,0,4.081.122,6.088.184v-.487c-4.749-.306-5.6-3.531-5.6-8.158V8.951l19.969,23.987h3.166V10.6c0-3.54.107-7.347,3.682-8.009l.763-.089M256.306,32.572v-.487c-3.288-.244-4.568-.671-4.568-4.446V6.94c0-3.775,1.221-4.259,4.568-4.443V1.951l-7.246.122-7.3-.122V2.5c3.347.184,4.505.609,4.505,4.443v20.7c0,3.775-1.221,4.2-4.505,4.446v.487l7.3-.122,7.246.122m-17.29,0v-.487c-3.228-.244-4.565-.671-4.565-4.446V6.94c0-3.775,1.277-4.259,4.565-4.443V1.951l-7.365.122-7.187-.122V2.5c3.35.184,4.446.609,4.446,4.443v9.194l-7.855.062h-5.9V6.94c0-3.775,1.158-4.259,4.505-4.443V1.951l-7.246.122-7.3-.122V2.5c3.347.184,4.5.609,4.5,4.443v20.7c0,3.775-1.218,4.2-4.5,4.446v.487l7.3-.122,7.246.122v-.487c-3.288-.244-4.505-.671-4.505-4.446V17.109l6.7-.059,7.062.059V27.64c0,3.775-1.1,4.2-4.446,4.446v.487l7.187-.122,7.365.122m-40.912-1.4.365-.107.365-.2.244.974c-.181,0-.244.122-.425.181l-.184-.493-.365-.359m-.731,1.036h-.549c.062-.487.244-.852.734-.852.425,0,.668.425.731.79l-.915.062M196.4,17.352h.059v.062m-.122.606-.181-.119c0-.122.059-.244.181-.244a.161.161,0,0,1,.184.181l-.048.137-.137.045m.062-.425-.244.122-.122-.3a.194.194,0,0,0,.181-.184h.062v.122l.122.244m-.609-.3-.059-.062.059-.122.122.122m-.244.549-.244-.122c0-.122.122-.184.244-.184.062,0,.122.062.122.184l-.122.122m.062-.793-.062.184.062.181a.42.42,0,0,0-.306.184v-.062l-.122-.3h.062l.243-.184h.122m-.487,14.977.229-.535a.573.573,0,0,1,.5-.258c.425,0,.484.671.484.915v.059l-1.215-.181m-.062-14.977-.059-.059.059-.062.062.062m-.184-.306v.244l.062.244-.062-.059-.3.122.059-.122-.122-.184.229-.077m.092.68-.137.068-.184-.184.062-.122h.122c.122,0,.181.062.181.122l-.045.116m-.38-.846-.062-.059.062-.062.059.062m-.276-.122.033.181-.184.062a.376.376,0,0,0,0-.365l.184-.062h.122l-.154.184m-.211,15.767.122-.122.609.122m-.731-15.4.122-.062.122.184-.122.181a.2.2,0,0,1-.184-.181v-.062l.062-.059m0-.793-.062.122-.059-.122.059-.062m1.114,14.4,1.262.151a3.807,3.807,0,0,0,1.948-.425l.365.362a3.126,3.126,0,0,1-1.7.549c-.609,0-2.922-.244-3.106-.912l.062-.062,1.173.336m-1.173,1.307-.122-.059c0-.244.122-.793.487-.793s.487.365.487.671l-.059.365-.365-.062c.059-.181.181-.3.181-.487l-.282.208-.327.157m-.184.915.184-.184a36.46,36.46,0,0,0,4.446.487,1.966,1.966,0,0,0,2.192-1.826,1.293,1.293,0,0,0-.49-1.033,1.681,1.681,0,0,1,.977.244.688.688,0,0,0,.181-.487,1.359,1.359,0,0,0-.365-.852,2.112,2.112,0,0,1,1.158,1.826c0,1.826-1.951,2.435-3.35,2.435a23.4,23.4,0,0,1-2.982-.428l-.953-.113-1-.068m-.243-16.316h.122c.122,0,.184,0,.184.122a.164.164,0,0,1-.184.184l-.122-.062v-.244l-.059-.974.425.546-.059.306-.131.015m-.6,15.873.425-.546-.059.122.122.244m-.668-15.279.134.279.048.33c0,.122-.062.668-.181.668s-.122-.546-.122-.668l.015-.33.107-.279m-.015,4.915.015.38-.122.609c-.122,0-.122-.549-.122-.671,0-.059,0-.609.122-.609l.107.291m.015-8.63-.009.169-.053.074c-.122.062-.244-.793-.244-.974l.062-.244c.059-.03.122.184.166.419l.077.555m0,6.391.187.077.053.166a.288.288,0,0,1-.3.306.335.335,0,0,1-.244-.306l.107-.166.2-.077m.1-4.692.083.19a.276.276,0,0,1-.3.241.259.259,0,0,1-.243-.241.222.222,0,0,1,.243-.244l.22.053m-.146,8.734.107.223a.325.325,0,0,1-.3.3c-.244,0-.365-.122-.365-.3s.122-.306.365-.306l.2.083m.047-7.267-.285-.258a1.5,1.5,0,0,1-.386-.959,1.721,1.721,0,0,1,.428-1.033,1.3,1.3,0,0,0-.244.912l.128.739.359.6m-.062,2.373-.327.558-.1.6a1.719,1.719,0,0,0,.244,1.1,1.806,1.806,0,0,1-.487-1.1l.175-.624.493-.535m-.974,4.568.131-.175.175-.131-.184.368m.062-12.785.22.053.083.19a.278.278,0,0,1-.3.244.262.262,0,0,1-.244-.244l.077-.19.166-.053m0,1.339-.5-.549a1.346,1.346,0,0,1-.229-.731,1.792,1.792,0,0,1,.425-.974,2.041,2.041,0,0,0-.181.915l.128.713.359.627m-.122,5.417-.16.677-.389.54a1.666,1.666,0,0,0,.306-1.218,2.272,2.272,0,0,0-.428-1.218,1.553,1.553,0,0,1,.627.864l.045.353m-.184,13.272-.03-.38-.214-.291h-.243a3.494,3.494,0,0,1,1.339-2.008,3.582,3.582,0,0,1,1.521,2.132H193.9l-.526-.763-.751-.579a4.156,4.156,0,0,1,.306,1.464,2.252,2.252,0,0,1-.365,1.277l-.267-.472-.4-.38m-.457-7.282.276-.086a.306.306,0,0,1,0,.612c-.244,0-.368-.122-.368-.306l.092-.22m-.03-3.92-.122.487-.062-.428a.576.576,0,0,1,.122-.425l.062.365m.229-6.7.146.318.053.353a1.807,1.807,0,0,1-.49,1.1,2.373,2.373,0,0,0,.247-1.1,1.6,1.6,0,0,0-.428-1.158l.472.487m-.229,4.383.2.1.107.146a.4.4,0,0,1-.306.365c-.184,0-.244-.181-.244-.365l.077-.169.166-.074m-.244,5.723.273-.532.092-.627a1.926,1.926,0,0,0-.306-1.155,1.722,1.722,0,0,1,.549,1.1,1.406,1.406,0,0,1-.19.677l-.419.541m.244-7.246-.048.359-.137.312-.122-.671.122-.728c.092,0,.137.166.16.342l.024.386m-.487,8.1.609-.944a2.171,2.171,0,0,0,.428-.944c0-.668-.487-1.277-.487-2.008,0-.974,1.034-1.461,1.034-2.313,0-.79-.852-1.28-.852-2.132,0-.79.609-1.336.609-2.129,0-1.033-1.339-1.155-1.339-2.616,0-.549.425-.974.3-1.523l.122.487-.181,1.036.059.448c.27.935,1.342,1.155,1.342,2.168,0,.793-.609,1.4-.609,2.129s.852,1.28.852,2.132c0,.912-.974,1.461-.974,2.373,0,.671.425,1.28.425,1.948a1.573,1.573,0,0,1-.487,1.036l-.852.852m-.062-11.143v-.3a.816.816,0,0,1,.122-.546l.062.3-.184.546m.306.549.2.116.107.249a.428.428,0,0,1-.306.244.325.325,0,0,1-.306-.3l.107-.2.2-.107m.428,17.836-.131.588-.359.448h-.244l-.3-1.036m.425-21.611-.1.19-.146.053c-.181,0-.3-.062-.3-.244a.278.278,0,0,1,.3-.244l.146.077.1.166m.122,13.94-.145.252-.279.116a.352.352,0,0,1-.365-.368c0-.244.122-.425.365-.425l.279.122.145.3m2.376,1.339.2-2.343.107-2.343-.059-2.679a.289.289,0,0,0,.365.062l-.062.122a.407.407,0,0,0,.365.425l.306-.059-.059.059a.456.456,0,0,0,.425.428.34.34,0,0,0,.306-.184s.181.425.425.425l.306-.122a.39.39,0,0,0,.362.365c.306,0,.428-.181.428-.365s-.062-.362-.244-.362c.122-.062.244-.244.181-.306h.793l-.122,1.033v.062a2.945,2.945,0,0,1-1.339.731,3.11,3.11,0,0,0,1.277-.365l-.122.365a2.063,2.063,0,0,1-1.1.668,2.025,2.025,0,0,0,.974-.3l-.059.3a2.554,2.554,0,0,1-1.1.671,2.559,2.559,0,0,0,.974-.244l-.122.365a5.645,5.645,0,0,1-1.155.668,2.919,2.919,0,0,0,1.033-.3l-.122.3-.974.549.79-.184-.362.852a9.65,9.65,0,0,1-1.1.612l.912-.246a4.182,4.182,0,0,0-.546,1.523l.122.731a1.989,1.989,0,0,1-.793.79,3.2,3.2,0,0,0,.915-.487,6.477,6.477,0,0,0,.728,1.036,2.715,2.715,0,0,1-.849.609,1.543,1.543,0,0,0,.971-.428l.243.246a1.547,1.547,0,0,1-.728.668,1.158,1.158,0,0,0,.849-.428l.244.244a1.279,1.279,0,0,1-.79.609h.059a1.2,1.2,0,0,0,.852-.365l.122.122a1.428,1.428,0,0,1-.79.671A2.023,2.023,0,0,0,197.5,28l.365.671s-.365.609-.731.668a1.535,1.535,0,0,0,.915-.365l.059.062c-.244.3-.487.609-.793.671a1.7,1.7,0,0,0,.915-.368l.122.368a3.051,3.051,0,0,1-1.826.484,4.78,4.78,0,0,1-2.192-.484,1.259,1.259,0,0,0-.184-.793h.306l.731-.062A1.473,1.473,0,0,1,193.659,28l.487.062L194.7,28a2.327,2.327,0,0,1-1.642-.546l.546.059.609-.059a2.675,2.675,0,0,1-1.948-.793,2.707,2.707,0,0,0,.974.184l.609-.059H193.6c-2.008,0-2.922-1.951-3.531-3.593l1.728.425,1.681.609m-3.9-6.878-.181-.059.243-.122.122.122m-.291,2.48-.137-.107c0-.244.365-.306.487-.306.184,0,.425.062.425.184,0,.244-.425.244-.546.244l-.229-.015m.169-1.446-.184.059a.273.273,0,0,1-.181-.244l.059-.059.175.077.131.166m.122.181.226.024.137.16c0,.181-.362.3-.484.3s-.365-.059-.365-.244c0-.089.092-.151.2-.19l.288-.053m.122,1.708.226.05.137.193c0,.181-.425.244-.546.244v.181c0,.062,0,.425-.244.425-.122,0-.181-.362-.181-.425,0-.321.1-.538.333-.624l.276-.045m-.731-5.055.059-.151a.742.742,0,0,1,.487-.151c.122,0,.365,0,.365.181s-.365.3-.546.3l-.229-.045-.137-.137m.425,7.062.282.092.146.273c0,.181-.244.365-.428.365a.407.407,0,0,1-.425-.365l.122-.273.3-.092m-.487,9.557,1.7.062a1.449,1.449,0,0,1-.731.181l-.487-.074-.487-.169m.487-17.774.258.045.169.137c0,.244-.428.306-.549.306s-.425-.062-.425-.244c0-.092.092-.154.2-.19l.342-.053m-.487,2.435h-.059c0-.184.122-.184.243-.244l-.122-.122c0-.184.425-.306.546-.306s.365.059.365.181c0,.306-.546.306-.731.306l-.053.137-.19.048m.184,2.676v.062l-.19-.045-.053-.14v-.059l.166.045m-.166,12.434.258-.5a.744.744,0,0,1,.532-.229c.487,0,.609.428.609.793v.059l-1.4-.122m.074-17.881-.137-.137c0-.184.428-.306.549-.306s.365.062.365.244-.428.244-.549.244l-.229-.045m.229-4.7L189.163,9l-.312.077c-.122,0-.365-.062-.365-.244s.428-.244.549-.244l.2.053.107.19M188.3,15.891V15.77c0-.122.062-.244.184-.244l.062.062-.077.2-.169.107m.125,3.775-.062.122-.122-.244.059-.122m.125.731.14.05a.523.523,0,0,1,.1.377c0,.122,0,.484-.244.484-.125,0-.184-.362-.184-.484l.045-.261.14-.166m.181,1.764.282.116.146.249a.4.4,0,0,1-.428.365.323.323,0,0,1-.365-.365l.092-.249.273-.116m-.053-7.677.116.252a.371.371,0,0,1-.368.425c-.3,0-.487-.122-.487-.425,0-.184.184-.365.487-.365l.252.113m.175-6.444-.181.386a.484.484,0,0,1-.368.16c-.365,0-.609-.181-.609-.546l.122-.365,1.036.365M188.3,28.837l-.846-.466a14.17,14.17,0,0,0,1.524-3.59,1.391,1.391,0,0,0-.181-.671l1.336-.059.487,1.033-.3.062a1.939,1.939,0,0,1-.912-.365,1.7,1.7,0,0,0,1.4.546,5.555,5.555,0,0,0,1.036,1.4h-.244a3.616,3.616,0,0,1-1.948-.549,3.763,3.763,0,0,0,2.435.793l.425.425-.3.244a4.226,4.226,0,0,1-2.435-.546,4.591,4.591,0,0,0,2.192.852l-.365.425h-.122a5.2,5.2,0,0,1-2.254-.609,4.914,4.914,0,0,0,2.254.915l-.246.365H191.1a3.94,3.94,0,0,1-2.31-.671,3.742,3.742,0,0,0,2.31.974l-.059.244a6.475,6.475,0,0,1-1.865-.38l-.882-.371m-.846-13.554.122.181c0,.125-.059.125-.122.184-.059-.059-.122-.059-.122-.184l.122-.181m.006,4.808.116-.059c.122,0,.184.365.184.487,0,.062-.062.428-.184.428-.181,0-.244-.365-.244-.428l.053-.291.074-.137m-.006-.425.062.122-.184.244-.059-.244.045-.062m-.045,4.08.122-1.036,2.619.428.119.793-1.452-.048m-1.47,7.169.306-.6c.137-.2.3-.371.487-.371.487,0,.671.731.671,1.1v.122l-1.464-.244m.306-9.316.279.1a.406.406,0,0,1,.146.327c0,.181-.244.365-.425.365a.41.41,0,0,1-.428-.365l.122-.327.306-.1m-.122-7.365-.048.238-.137.19c-.181,0-.241-.365-.241-.428,0-.122.059-.487.241-.487l.137.2.048.288m-.668,14.549V28.92a.633.633,0,0,1,.244-.487,7.691,7.691,0,0,0,4.565,1.461v.184l-.059.241h-.549a8.642,8.642,0,0,1-3.356-.769l-.843-.57m.728-12.357.359.083a1.1,1.1,0,0,1,.618.953,1.06,1.06,0,0,1-.977,1.033,1.013,1.013,0,0,1-.971-1.033,1.054,1.054,0,0,1,.588-.953l.383-.083m-.935-1.042.024.19v.122l-.181-.244v-.122m.059,4.262h-.059v-.122a.273.273,0,0,1,.181-.244l.062.059-.048.2-.137.107m.068.3.116-.059c.181,0,.244.306.244.487,0,.062-.062.365-.244.365s-.244-.3-.244-.365l.053-.291.074-.137m-.19,3.656.137-.549.048-.549.546.062-.122,1.1m-.217-14.311.163-.217.175-.083c.546,0,.852,1.826.852,2.254,0,.546-.244.971-.852.971s-.852-.425-.852-.971l.243-1.265.27-.689m-.255,16.853-.137.074-.122-.244h.306m.22-4.36.146.282c0,.181-.244.365-.428.365a.352.352,0,0,1-.365-.365.4.4,0,0,1,.365-.428l.282.146M186.3,10.1l-.312,1.592a1.026,1.026,0,0,0,1.033,1.033c.731,0,.974-.487.974-1.1,0-.487-.428-2.8-.974-2.8-.137,0-.27.151-.392.386l-.33.885m.3,19.55.175.187a1.7,1.7,0,0,1,.128.787v.425l-.638-.235c-.244-.1-.457-.22-.457-.374s.151-.318.327-.463l.466-.327m-.731-15.464.3-.122c.243,0,.365.184.365.428s-.122.425-.365.425a.414.414,0,0,1-.425-.425l.122-.306m.235,3.525.217.074.1.116c0,.119-.365.425-.487.484l.549-.122.122.122-.184.549a1.081,1.081,0,0,1,.487-.306c.181,0,.181.549.122.671.059-.062.3-.549.425-.549s.306.428.365.487v-.122s0-.487.122-.487a1.442,1.442,0,0,1,.549.365l-.184-.609c0-.059,0-.122.125-.122l.546.122c-.122-.059-.487-.3-.487-.484s.549-.244.609-.244c-.059,0-.609-.062-.609-.244s.365-.428.487-.487l-.546.059-.125-.059a1.169,1.169,0,0,1,.184-.609.815.815,0,0,1-.549.365c-.181,0-.122-.549-.122-.671-.059.122-.244.549-.365.549-.181,0-.3-.428-.365-.549v.244c0,.184,0,.428-.181.428s-.365-.184-.487-.306a.819.819,0,0,1,.184.487c0,.122-.062.122-.184.122l-.546-.059c.122.059.546.3.546.487s-.609.244-.668.244l.356.053m-.478-1.515h.059c.122-.062.184.059.184.181h-.062l-.181-.181m.157,2.845-.157.074h-.062l-.059-.059c0-.122.181-.184.3-.184l-.024.169m.1,1.277.045.261c0,.122-.059.425-.181.425-.244,0-.244-.3-.244-.425s0-.428.244-.428l.137.166m-.38,5.007v-.059h.3l-.3-.122v-.062l.365.062-.306-.184.062-.059h.243l-.243-.122.059-.062.306.062h.122c-.122,0-.306-.062-.306-.184v-.059l.428.059-.306-.181.365-.062c.609,0,.79.487.912.974a2.39,2.39,0,0,1-.849.306l-.448-.107-.4-.2m-.122-7.668.371-.2.419-.107c-.122-.122-.668-.365-.668-.546,0-.122.122-.122.181-.122l.793.181a1.364,1.364,0,0,1-.365-.731l.059-.059v-.062c.184,0,.549.306.731.487l-.059-.487.059-.365c.3,0,.487.549.546.671.062-.062.306-.731.487-.731.122,0,.062.731.062.912.181-.181.428-.487.671-.487l.059.184a1.493,1.493,0,0,1-.244.668,1.18,1.18,0,0,1,.609-.181c.184,0,.244,0,.244.122a.812.812,0,0,1,.487-.184c.122,0,.365,0,.365.244,0,.122-.425.244-.487.244-.122,0-.425-.059-.425-.181a1.114,1.114,0,0,1-.609.425,1.517,1.517,0,0,1,.79.184l.428-.122c.122,0,.362.059.362.244s-.425.244-.546.244-.3,0-.365-.122a1.744,1.744,0,0,1-.609.181c.122.059.609.365.609.546,0,0,0,.122-.244.122a1.38,1.38,0,0,1-.668-.181,1.4,1.4,0,0,1,.365.731l-.122.122c-.244,0-.549-.306-.671-.487v.425c0,.062,0,.428-.062.428-.244,0-.425-.549-.487-.671-.059.122-.244.671-.484.671-.184,0-.062-.671-.062-.793a1.289,1.289,0,0,1-.731.428l-.059-.122c0-.184.243-.487.365-.731l-.793.181-.122-.059H185.5c0-.184.546-.549.668-.609l-.44-.107-.35-.2m-.062,7.852.062-.062a1.477,1.477,0,0,0,1.945,0h.062v.062c0,.3-.852.546-1.034.546a1.715,1.715,0,0,1-.974-.365l.244.062-.306-.244m.487-18.448.389.16.16.389a.546.546,0,0,1-.549.549.6.6,0,0,1-.609-.549.524.524,0,0,1,.19-.389l.419-.16m-.235,14.787.113.252c0,.181-.181.425-.365.425a.517.517,0,0,1-.428-.425c0-.184.244-.365.428-.365l.252.113m-.009-3.828-.05.143a.538.538,0,0,1-.377.1c-.122,0-.487-.059-.487-.244s.306-.241.428-.241l.288.074.2.166m-.059-3.528-.16.107-.208.015a.658.658,0,0,1-.487-.122l-.059-.122.059-.122.306-.122a.72.72,0,0,1,.49.2l.059.16m0,1.764-.16.137-.208.048a.7.7,0,0,1-.487-.184v.306l-.059-.428.059-.059c.062-.125.244-.125.365-.125a.662.662,0,0,1,.431.157l.059.148m0,2.738-.16.14-.208.045-.487-.122-.059-.122.059-.122.306-.062a.8.8,0,0,1,.49.1l.059.14m-.855-3.775.151-.107.154-.015c.181,0,.549.062.549.244s-.368.184-.428.184l-.428-.062-.122-.181.122-.062m0-3.528.291-.169.38-.074a1.274,1.274,0,0,1,.609.244v-.365l-.365-.122-.487.122c-.243,0-.428-.122-.428-.365a.479.479,0,0,1,.487-.487,1.009,1.009,0,0,1,.915.487l.062-.428c-.244-.609-.977-.059-.977-.668,0-.122.184-.244.368-.244a.808.808,0,0,1,.668.487l.122-.244c-.122-.549-.731-.122-.731-.671a.262.262,0,0,1,.244-.244c.306,0,.487.244.671.487l.059-.244c-.122-.365-.487-.244-.487-.546l.122-.184c.306,0,.428.306.549.487.059-.122.122-.122.181-.122l-.059-.487c0-.122.059-.244.181-.244s.181.062.181.244l-.122.428c.122.059.184.059.244.181.062-.181.244-.487.428-.487l.122.062.059.181c0,.181-.365.122-.425.487l.059.306a.706.706,0,0,1,.609-.549c.122,0,.246.181.246.306,0,.3-.549.122-.734.546l.122.306c.184-.244.487-.549.793-.549a.4.4,0,0,1,.306.306c0,.425-.793.122-.977.609l.062.365a1.052,1.052,0,0,1,.731-.365.551.551,0,0,1,.609.487.341.341,0,0,1-.3.365L188.3,11.2l-.244.059.062.428a1.286,1.286,0,0,1,.609-.244.73.73,0,0,1,.731.668c0,.244-.122.365-.3.365-.306,0-.487-.365-.855-.365H188l-.062.244c.365,0,.915.244.915.546,0,.246-.425.612-.671.612s-.3-.612-.668-.793l-.306.122a.579.579,0,0,1,.306.487.546.546,0,0,1-.546.549.5.5,0,0,1-.487-.549.509.509,0,0,1,.365-.549l-.306-.059c-.487.122-.425.793-.731.793-.244,0-.671-.365-.671-.549,0-.365.671-.609.977-.609l-.122-.244h-.243c-.49,0-.549.365-.915.365l-.184-.122a.337.337,0,0,1-.181-.306l.181-.362m0,7.911h.184c.181,0,.549,0,.549.244,0,.125-.246.246-.368.246l-.365-.122a.275.275,0,0,1-.244-.184l.244-.184m0-6.329.288.083c.107.053.2.128.2.22,0,.184-.365.184-.487.184-.181,0-.425-.062-.425-.306l.166-.137.258-.045m0-3.593.166.068.077.116c0,.122-.181.181-.244.244h-.181c-.122,0-.487-.062-.487-.244,0-.154.122-.214.267-.229l.4.045m0-.912.083.068.039.113-.122.244h-.244c-.122,0-.484-.062-.484-.306,0-.119.241-.181.362-.181l.365.062m0-.852.122.181-.122.062-.3.059c-.184,0-.546-.059-.546-.244s.241-.181.362-.181l.243.015.244.107M184.589,22.1l-.122.282-.306.143c-.181,0-.362-.244-.362-.425a.39.39,0,0,1,.362-.365l.306.113.122.252m0-14.977-.137.19-.229.053c-.184,0-.546-.062-.546-.306,0-.122.3-.181.362-.181a.891.891,0,0,1,.49.128l.059.116m-1.033,12.6-.015.359-.107.312c-.062,0-.062-.609-.062-.671s0-.668.062-.668l.107.312.015.356m.1-2.266.083.2a.287.287,0,0,1-.3.3.278.278,0,0,1-.243-.3c0-.122.122-.306.243-.306l.22.107m.995.077.122.059h-.122c-.181.062-.3.122-.3.306a.62.62,0,0,0,.3.484l.122.062h-.122c-.181.059-.365.181-.365.3a.706.706,0,0,0,.365.549l.062.059h-.062c-.181.062-.487.062-.487.365,0,.184.243.368.365.428-.181.122-.425.244-.425.428a.37.37,0,0,0,.181.365.957.957,0,0,1,.365-.487l.244-.062.244.122c0,.244-.365.487-.487.609v.122l.184.059c.3,0,.365-.244.425-.425a.6.6,0,0,0,.49.425c.243,0,.365-.181.425-.425,0,.244.184.487.365.487.306,0,.428-.244.487-.487.122.181.244.487.546.487.184,0,.365-.306.365-.487a.717.717,0,0,0,.612.546.63.63,0,0,0,.425-.3c.062.181.184.546.428.546a.451.451,0,0,0,.425-.365c.062.184.184.365.365.365a.4.4,0,0,0,.365-.425c0-.3-.365-.365-.609-.3.122-.244.668-.244.668-.549,0-.425-.365-.365-.668-.365.181-.244.668-.244.668-.609,0-.306-.546-.306-.728-.306.181,0,.668-.3.668-.546,0-.184-.487-.365-.668-.365.181-.122.668-.3.668-.546,0-.306-.184-.365-.428-.365a.589.589,0,0,0,.428-.549c0-.244-.306-.365-.487-.365.122-.122.425-.3.425-.549s-.243-.3-.425-.3a.774.774,0,0,0,.425-.609c0-.181-.425-.3-.546-.365.181-.059.487-.244.487-.487s-.365-.365-.487-.365c.122-.122.487-.3.487-.609,0-.184-.365-.306-.487-.306a.7.7,0,0,0,.365-.546c0-.244-.425-.365-.609-.365a.806.806,0,0,0,.365-.546c0-.244-.365-.306-.487-.365a.591.591,0,0,0,.428-.487c0-.306-.428-.365-.671-.365.184-.122.428-.306.428-.549,0-.181-.428-.3-.609-.365.181-.062.487-.365.487-.546s-.243-.306-.365-.306l.181-.3.487.122a62.817,62.817,0,0,1,.974,9.435c0,1.521,0,3.166-.122,4.686a19.461,19.461,0,0,0-4.992-.731h-1.158l-.971.122a25.141,25.141,0,0,0,.362-4.259v-.428a60.379,60.379,0,0,0-1.034-10.412l.852.062-.342.143-.145.122-.059.16c0,.368.3.428.546.49-.181.059-.487.244-.487.425,0,.244.428.487.668.487-.181.062-.546.244-.546.425,0,.306.428.428.609.49-.122.059-.425.181-.425.365s.362.487.546.487a.671.671,0,0,0-.425.487c0,.244.362.365.546.425-.184.062-.546.184-.546.487,0,.184.362.365.606.425-.181.062-.484.244-.484.428,0,.244.362.487.484.549-.122.059-.365.244-.365.425s.365.365.487.428c-.122.122-.487.3-.487.487s.365.425.549.487c-.184,0-.428.181-.428.362,0,.244.243.428.487.487l.062.062h-.062c-.244.059-.425.122-.425.365l.122.312.3.175h.062l-.062.062c-.181,0-.425.181-.425.3l.145.3.279.252-.059-.487.059-.062.365-.059c.122,0,.49.059.49.244s-.306.181-.368.181a.508.508,0,0,1-.487-.181v.365m-1.642,14.121.024-.19-.024-.235a7.429,7.429,0,0,1,1.642-.062l2.011.306,1.521.365a5.916,5.916,0,0,0,1.767.487h.122a1.561,1.561,0,0,0,1.767-1.7,1.876,1.876,0,0,1,.365.852l-.062.609a3.2,3.2,0,0,0,1.155-2.741,1.935,1.935,0,0,1,.487,1.218,2.343,2.343,0,0,1-.79,1.583l.912-.181.062.059-.538.517a3.213,3.213,0,0,1-2.019.641,13.416,13.416,0,0,1-3.715-.974,12.905,12.905,0,0,0-3.044-.671l-.3-.059-.716.045-.624.137m.549-15.1-.359.552-.128.6a2.056,2.056,0,0,0,.3,1.033,1.38,1.38,0,0,1-.425-1.093,1.255,1.255,0,0,1,.333-.882l.276-.214m.059-3.472-.077.22-.166.086-.3-.122a2.322,2.322,0,0,0,.546,1.1,1.488,1.488,0,0,1-.731-1.28,1.208,1.208,0,0,1,.428-.974,1.576,1.576,0,0,0-.244.915c0-.125.122-.184.3-.184l.145.077.1.166m-.8,8.85.252-.083a.3.3,0,0,1,0,.609.34.34,0,0,1-.365-.306l.113-.22M182.885,8.1l.166.083.077.223a.262.262,0,0,1-.244.244.278.278,0,0,1-.3-.244l.083-.223.22-.083m-.059,13.331.19.077.053.166v.062l-.062-.062c-.181,0-.365.122-.365.244l-.122-.244.083-.166.223-.077m.042-.766.383-.146a2.16,2.16,0,0,0-.912,1.642l-.062-.546a1.034,1.034,0,0,1,.282-.707l.309-.244m-.163,7.617-.428.273a1.18,1.18,0,0,1,1.158-1.036,1.544,1.544,0,0,1,1.215.731,1.305,1.305,0,0,1,.184.731,1.788,1.788,0,0,1-.184.855,3.926,3.926,0,0,1-.79,1.155l-.852.181a.743.743,0,0,0-.365-.609c.671-.181,1.461-.484,1.461-1.218a1.047,1.047,0,0,0-.974-1.155l-.425.092M182.885,9.5l-.526-.549a1.4,1.4,0,0,1-.2-.731,1.354,1.354,0,0,1,.365-.915,1.38,1.38,0,0,1-.181-.668V6.453a1.447,1.447,0,0,1,.3.793l-.059.184-.062-.062a1.449,1.449,0,0,0-.181.731,2.2,2.2,0,0,0,.306,1.123l.241.279m-.122,5.72-.128.564-.359.472a1.6,1.6,0,0,0,.306-1.036,1.926,1.926,0,0,0-.428-1.155l.443.487.166.668m-.41-4.624.166.668a1.519,1.519,0,0,1-.487,1.1,1.764,1.764,0,0,0,.306-1.1,1.611,1.611,0,0,0-.428-1.155l.442.487m-.2,4.321.166.083.077.22c0,.122-.122.306-.244.306-.184,0-.243-.184-.243-.306l.053-.2.19-.107m-.184,1.158.107.288.015.38c0,.062,0,.609-.122.609l-.122-.609.122-.668m.062,6.085.273.077.092.166c0,.244-.122.306-.365.306a.286.286,0,0,1-.306-.306l.107-.166.2-.077m-.306,9.863.16-.508a.442.442,0,0,1,.389-.282.515.515,0,0,1,.428.244.979.979,0,0,1-.443.342l-.535.2M181.97,13.4l-.039.356-.083.312c-.122,0-.181-.609-.181-.668s.059-.671.181-.671l.083.312.039.359m.16,5.355.145.671a1.664,1.664,0,0,1-.428,1.1,1.88,1.88,0,0,0,.306-1.1,1.673,1.673,0,0,0-.487-1.158l.273.217.19.27m0-7.686.083.2a.327.327,0,0,1-.3.306.4.4,0,0,1-.306-.306.391.391,0,0,1,.306-.3l.22.1m-.16,8.357-.053.2-.19.1c-.122,0-.244-.181-.244-.3a.279.279,0,0,1,.244-.306l.19.086.053.22m.457-9.664.481.546a1.263,1.263,0,0,1,.22.716c0,.793-.546,1.4-.546,2.07,0,.793.79,1.339.79,2.192,0,.974-.974,1.461-.974,2.376,0,.668.549,1.215.549,1.945,0,.793-.915,1.342-1.342,1.948.243-.546,1.036-1.4,1.036-1.886,0-.731-.487-1.28-.487-2.008,0-1.036.915-1.523.915-2.376,0-.79-.793-1.277-.793-2.192,0-.731.549-1.277.549-2.008,0-1.1-1.4-1.158-1.4-2.679,0-.549.425-.974.3-1.464a.555.555,0,0,1,.184.428c0,.365-.184.671-.184,1.036a1.435,1.435,0,0,0,.22.784l.481.57m-1.188,15.568.062-.181a1.679,1.679,0,0,0,.974-1.826,9.658,9.658,0,0,0,2.373.609l1.524.122v.122a1.173,1.173,0,0,0-.852,1.1.324.324,0,0,0-.184.244c0,.365.671.668.915.668,0,.184.062.365.244.365.243,0,.306-.181.306-.365.3,0,.971-.3.971-.668a.262.262,0,0,0-.244-.244,1.164,1.164,0,0,0-.912-1.1v-.062a13.6,13.6,0,0,0,2.254,0v.122l-.166.962c-.309,1.007-.962,2.114-1.235,3.118l-.244-.122c-.365,0-.609.487-.609.79l.184.365c-.487.122-1.1.612-1.1,1.158,0,.3.244.425.425.546l-1.28-.059h-.609l.609-.671a2.113,2.113,0,0,0,.487-1.339,1.691,1.691,0,0,0-.487-1.277,1.8,1.8,0,0,0-1.215-.487c-.915,0-1.221.668-1.221,1.461v.3a.981.981,0,0,1,.855-.487.705.705,0,0,1,.731.731c0,.612-.731,1.036-1.158,1.218v-.059c0-.365-.731-.546-1.036-.609a6.4,6.4,0,0,1-.425-2.619l-.015-.912.074-.915m0-17.774-.059.244A1.333,1.333,0,0,1,180.936,7V6.819l.22.365.083.368m0,13.634.062.184c0,.181-.122.974-.306.974-.119,0-.119-.122-.119-.184a2.59,2.59,0,0,1,.229-.846l.134-.128m.068,1.325.116.2a.344.344,0,0,1-.365.306.289.289,0,0,1-.3-.306.327.327,0,0,1,.3-.306l.249.107m-1.1,9.877.214-.342a.558.558,0,0,1,.395-.2,2.1,2.1,0,0,1,.668.3l-1.277.244m-.731-19.357-.03-.2-.214-.107-.062.059.125.428-.125.549.223-.321m.448-6.257-.3-.122-.612-1.033.368.181m-.49,25.51h-.181l.059-.487c.977,0,2.557-.122,3.044-1.155.184.059.549.181.549.362,0,.778-1.574,1.108-2.646,1.224l-.826.056m.062-19.482-.053-.312c-.039-.1-.1-.175-.19-.175l-.122.062-.062.059c0,.122.244.244.244.487a4.968,4.968,0,0,1-.244.915l.306-.472.122-.564M178.7,32.5l-.318-.107c.122-.365.244-.365.668-.365a.715.715,0,0,1,.671.487h-.609L178.7,32.5M179.048,7l-.487-.122-.79-.974.668.059m-1.292-.879.1.2-.018.2-.122.059a.5.5,0,0,1-.428-.609l.122-.059.187.062.163.151m-.472.941.671-.122.728.912-.606.062m-.852.181-.793-.731.487-.244.793.852M175.151,6.7l.365-.244.734.793-.368.184m-.389-2.809.267-.053a.8.8,0,0,1,.793.671.745.745,0,0,1-.793.668.688.688,0,0,1-.731-.668.644.644,0,0,1,.229-.472l.235-.146m.371,12.028.65-.4a3.907,3.907,0,0,0,.953-1.149,5.2,5.2,0,0,0-.671.549,6.169,6.169,0,0,1-1.767.974l-.059-.3.122-.428c.852-.428,1.461-1.886,1.889-1.826h.122a3.675,3.675,0,0,1,1.642,2.07c.365-.731,1.1-.915,1.339-1.764a12.634,12.634,0,0,0,.549-2.619l.849-1.218.122,3.409v.306l-.787,1.206a11.819,11.819,0,0,1-3.047,3.175,5.191,5.191,0,0,1-2.254.915c-.244,0-.546-.062-.546-.365a.9.9,0,0,1,.244-.487,3.293,3.293,0,0,0,3.166-2.251,4.653,4.653,0,0,1-3.166,1.945h-.062v-.122a.741.741,0,0,1,.184-.546c1.28-.122,2.313-.425,2.8-1.642-.365.731-2.192,1.277-2.985,1.461a.409.409,0,0,1-.244-.306.616.616,0,0,1,.244-.425l.713-.157m-.65-8.794-.609-.671.243-.244.731.671m-.244-3.225-.146.19-.282.053c-.119,0-.425-.062-.425-.244s.306-.246.425-.246l.282.053.146.193m-.974,3.044.668.668c-.181.122-.3.306-.484.365l-.487-.731.3-.3M174.3,5.6l.472.137a.5.5,0,0,1,.2.41.618.618,0,0,1-.668.546.6.6,0,0,1-.609-.546.5.5,0,0,1,.19-.41L174.3,5.6M174.24,8.77l-.487.3-.3-.974a.411.411,0,0,0,.3-.181l.487.852m-.852,23.01.048-.419-.048-.371a3.721,3.721,0,0,0,2.557,1.277c.549,0,1.461-.181,1.461-.974a1.161,1.161,0,0,0-.244-.731c.549,0,1.218.244,1.218.915,0,1.1-1.277,1.583-2.192,1.583a3.26,3.26,0,0,1-2.156-.772l-.644-.508M173.631,6.8l.134.131.051.2a.553.553,0,0,1-1.1,0c0-.306.306-.428.549-.428l.365.1m-.181,2.4-.428.244-.365-.974.425-.181m-.365-3.9.342.048c.353.089.695.318.695.683,0,.487-.609.728-1.036.728-.365,0-.971-.241-.971-.728a.744.744,0,0,1,.665-.692l.306-.039m0,5.114-.668.059-.3-.974.606-.122m.244-.668-.042.193a.475.475,0,0,1-.445.232.413.413,0,0,1-.425-.425c0-.184.243-.365.425-.365l.336.113.151.252m-.2,20.958-.707-.2a.743.743,0,0,1,1.461.181v.122l-.754-.1m-.843-24.382L171.38,4.2c0-.184.3-.306.425-.306s.365.122.365.306c0,.122-.244.244-.365.244l-.258-.074m-.166,24.486.849.2.852.107c.306,0,.734-.062.734-.428a2.306,2.306,0,0,0-.244-.79.411.411,0,0,0,.244-.428,1.288,1.288,0,0,0-.184-.728h-.425l.14-.564c.44-1.146,1.619-1.173,2.842-1.387l.731-.181c.306,1.521.062,4.443.793,5.723h-.184a2.3,2.3,0,0,0-.912.122c.365.122.668.3.668.668,0,.609-.912.793-1.339.793-1.218,0-1.886-.852-2.738-1.583a2.408,2.408,0,0,0-1.523-1.339l-.3-.184m.059-17.836-.122-.059.122-.122.184.122m-.671,21.792.535-.273a.6.6,0,0,0,.258-.457.559.559,0,0,0-.243-.487,1.117,1.117,0,0,0,.79-1.155,1.411,1.411,0,0,0-.244-.852,2.254,2.254,0,0,1,1.1,1.948c0,.867-.722,1.117-1.464,1.215l-.728.062m.731-23.132h-.609l-.244-.852.549-.122m-.671,2.313.137-.214a2.267,2.267,0,0,1,.837-.214l-.974.428m.609-5.357v.181c-.059.365.365.668.731.668a1.09,1.09,0,0,0,.546-.244c.062.487-.546.852-.971.852s-.974-.3-.974-.731a.694.694,0,0,1,.2-.478l.472-.249M171.2,8.22l-.137.19-.229.053c-.181,0-.425-.059-.425-.244s.244-.3.425-.3l.229.083.137.22m.08-3.552.042.2a.469.469,0,0,1-.487.425c-.244,0-.546-.181-.546-.425a.531.531,0,0,1,.546-.487l.336.131.11.151m.163,6.718.267-.122.039-.3c.362-.122.668-.365.606-.731v-.062c-.181.306-.606.184-.912.184-.487,0-1.155.365-1.155.974l.181-.122.306.122.243-.062.425.122m-.912-2.557.181.852-.546.062-.246-.855m0,11.27-.059-.371.306.609M169.794,28l.125-.229a.817.817,0,0,1,.668-.258.645.645,0,0,1,.731.731v.244L169.794,28m-.122-2.616.273-.621c1.535-2.91,5.381-2.985,5.268-4.98l.487.059a5.406,5.406,0,0,0,2.679-1.218,10.6,10.6,0,0,0,3.225-4.321,32.4,32.4,0,0,1-1.458,9.316,9.551,9.551,0,0,1,4.5-1.036h.487l1.036.059-.244,1.036-1.28-.059-2.373-.365-.062-.244v.3c0,.428-.546,1.583-1.155,1.642l-.062.122a2.994,2.994,0,0,1-1.093.487,6.283,6.283,0,0,0,1.033-.181l-.059.546-1.1.365,1.1-.122-.062.365a2.214,2.214,0,0,1-.974.428l1.036-.059v.3a4.635,4.635,0,0,1-1.036.425l1.036-.122v.306a2.04,2.04,0,0,1-1.036.487h.184a2.438,2.438,0,0,0,.912-.184l.059.244a2.521,2.521,0,0,1-1.155.549,2.742,2.742,0,0,0,1.218-.244,9.926,9.926,0,0,0,.546,1.158c-.609.912-2.067,1.093-3.044,1.093a.933.933,0,0,0-.79-.546c-.731-2.132-.059-4.446-.852-6.819a11.15,11.15,0,0,1-.731-2.679v.181a10.241,10.241,0,0,0,.549,2.985l-.122.059a1.432,1.432,0,0,1-.428-.849v.122a1.594,1.594,0,0,0,.306,1.033l-.243.181a1.736,1.736,0,0,1-.671-1.215v.3a1.893,1.893,0,0,0,.365.974H175.7l-.339-.235a1.544,1.544,0,0,1-.514-1.1V23.5a1.753,1.753,0,0,0,.425,1.215,2.537,2.537,0,0,0-1.155.306,1.487,1.487,0,0,1-.731-1.277l-.059.244a1.738,1.738,0,0,0,.546,1.155l-.181.122c-.549-.122-.793-.793-.915-1.277a1.843,1.843,0,0,0,.671,1.458,2.03,2.03,0,0,0-.368,1.342,6.137,6.137,0,0,1-2.714-.763l-.695-.639m-.092-20,.336-.092a.365.365,0,1,1,0,.731c-.244,0-.487-.122-.487-.365l.151-.273m.092,2.771.19.083.053.22c0,.062-.059.184-.244.184a.271.271,0,0,1-.244-.184l.077-.22.166-.083m.244-1.4-.059.181c0,.428.365.549.731.549l.365-.059c-.059.365-.487.487-.79.487s-.855-.122-.855-.549a.5.5,0,0,1,.19-.374l.419-.235M169.7,25.882l.434.33a5.8,5.8,0,0,0,3.314.882l.059.365c0,.244-.122.244-.365.244-1.1,0-3.653-.731-3.959-1.889,0-.122.062-.3.184-.3l.333.371M169.55,8.951l.244.852-.609.122L169,9.132m.546-2.616-.092.22-.273.083c-.122,0-.365-.122-.365-.3s.244-.306.365-.306l.273.083.092.223m-1.01,2,.22-.053a.224.224,0,0,1,.244.244.262.262,0,0,1-.244.244.278.278,0,0,1-.3-.244l.083-.19m-.146,8.1h-.059l.181-.059m-.181,10.531.229-.321.318-.229a.93.93,0,0,1,.609.793l-.122.487L168.8,27.5l-.469-.41m.243-20.153.166.077.074.166a.223.223,0,0,1-.241.246c-.122,0-.306-.062-.306-.246l.107-.166.2-.077m-.122,3.778-.184-.122a.2.2,0,0,1,.184-.184c.059,0,.122.062.122.184l-.122.122m.181-1.523.181.793-.484.181-.184-.731M168.1,7.68l.053.116c0,.181-.059.3-.243.3a.278.278,0,0,1-.244-.3.271.271,0,0,1,.244-.184l.19.068m-.03,1.143.083.187c0,.184-.122.246-.3.246a.225.225,0,0,1-.244-.246.221.221,0,0,1,.244-.241l.22.053m-.039,1.467-.425.184-.184-.671.365-.244m-.546-1.277.22.045.083.137a.288.288,0,0,1-.3.306.281.281,0,0,1-.246-.306l.077-.137.169-.045m-.018,2.783.077.14c0,.122-.122.122-.243.122-.062,0-.122,0-.122-.122s.059-.184.122-.184l.166.045m.077-.41-.3.131-.252.175-.059-.731.428-.306m.059-.425-.077.166-.166.077a.279.279,0,0,1-.306-.244.288.288,0,0,1,.306-.306l.166.083.077.223m-.915,1.826-.181-.184c.059-.3.059-.487.3-.609l.062.609-.184.184m-.3,18.864.116-.3.365-.181a6.5,6.5,0,0,1,3.166-1.036c.974,0,2.373.365,2.373,1.583a1.089,1.089,0,0,1-1.093,1.1,3.284,3.284,0,0,1-.977-.244.983.983,0,0,0,.915-.915c0-.731-.852-.852-1.4-.852a5.371,5.371,0,0,0-2.982.915l-.609.365-.122-.184.249-.249M165.9,12.42l-.484-.059a2.284,2.284,0,0,1,.546-.852l-.062.912m-.122,2.557-.668-.059a20.527,20.527,0,0,0,.852-2.07l.181.059a.282.282,0,0,0,.306-.181v-.731l-.184-.609.184-.059.425-.306-.059.306c0,.181.244.365.428.365a.4.4,0,0,0,.059-.793l.974-.425-.059.122a.4.4,0,0,0,.365.425c.241,0,.362-.181.362-.425l-.241-.306c1.642-.487,3.59-.244,4.87-.852,1.945-.912,1.642-2.132,4.443-2.376l.059.184a.282.282,0,0,1-.181.306,4.771,4.771,0,0,1,1.339-.122,2.124,2.124,0,0,1,2.07,2.008l-.062.671a1.535,1.535,0,0,0-.79-.609c-.059-.793-.546-1.767-1.461-1.767-1.764,0-.671,1.889-2.129,2.985.487-.122.852-.915.974-1.4a1.419,1.419,0,0,1,.912.852,1.442,1.442,0,0,0-.793-1.218l.122-.3a3.9,3.9,0,0,1,1.036.974A4.3,4.3,0,0,0,178.38,8.4l.3-.184a3.062,3.062,0,0,1,.793.974,5.13,5.13,0,0,0-.428-1.033s1.221.728,1.221,1.521a.912.912,0,0,1,.849.609,3.241,3.241,0,0,1-.79,1.339v.062a10.117,10.117,0,0,1-.487,2.435c-.243.731-.852,1.155-1.036,1.823-.609-2.432-2.554-1.764-2.554-4.443a4.622,4.622,0,0,1,.181-1.277,4.216,4.216,0,0,0-.487,1.7,2.663,2.663,0,0,0,.428,1.342,2.985,2.985,0,0,1-.671,1.7l.059-.484v-.306l-.244,1.033c-.181.122-.3.306-.546.368l.181-.731-.425.849-.365.184.122-.671a1.792,1.792,0,0,1-.365.671l-.3.059.059-.425v-.244a1.242,1.242,0,0,1-.244.668l-.365.062.122-.731-.306.731-.3-.062.181-.731-.365.731-.365-.059a3.077,3.077,0,0,0,.184-.793,1.922,1.922,0,0,1-.365.793h-.487a2.919,2.919,0,0,0,.3-1.033,1.9,1.9,0,0,1-.546,1.033h-.181a3.226,3.226,0,0,0-2.073,1.158c0-.428,1.221-1.645,1.221-2.922l-.062-.365a8.522,8.522,0,0,1-3.775,1.155l-.671.059m-1.155,1.1.912.258.915.166,1.7.122v.122l-.79,1.036a1.352,1.352,0,0,1-.671-.306,1.227,1.227,0,0,0,.549.428l-.184.3a1.026,1.026,0,0,1-.609-.184l.487.365-.184.244-.3-.122-.365-.122.365.244.244.122-.122.365h-.122a.8.8,0,0,1-.609-.181,1.279,1.279,0,0,0,.609.365h.059l-.059.3v-.181l-.062.244a1.086,1.086,0,0,1-.609-.244,1.4,1.4,0,0,0,.609.425v.184a1.433,1.433,0,0,1-.728,0,1.2,1.2,0,0,0,.668.122V20.4l.059.487a2.1,2.1,0,0,1-.668.181h.244a.531.531,0,0,0,.425-.059l.062.122.122.181-.487.487c.122-.059.3-.122.365-.244l.244-.122.3.122a1.341,1.341,0,0,1-.425.549,1.089,1.089,0,0,0,.549-.487l.244.059.546-.122a.409.409,0,0,1,.243.306l-.059-.365.122-.062.244.244-.122-.365.122-.059.122.3-.062-.3.668-.546a.334.334,0,0,0,.184.244l-.184-.428c0-.181.122-.974.306-1.036l.181.184c.062.609.365,1.1,1.036,1.1.122,0,.549,0,.549.122-.062.668-1.708,1.033-2.254,1.155h.487a3,3,0,0,1-2.435,1.4l-.609-.122c-1.886-.428-2.435-2.254-2.435-4.08l.19-1.6.419-1.559m-.166-1.028.644.16.74.074h.609a9.377,9.377,0,0,0,3.1-.79l.184.425c0,.487-.549.974-.731,1.339h-.425l-.122-.306v.306h-.365l-.122-.365-.062.365H167.3l-.122-.365-.059.365h-.368l-.122-.428V16.2h-.181l-.306-.062a.736.736,0,0,1-.122-.487.688.688,0,0,0,0,.487l-.362-.122a.7.7,0,0,1-.184-.487.523.523,0,0,0,0,.425c-.425-.059-1.948-.668-2.011-1.093l.457.039.535.151m.4,15.966.249-.2.122-.249a8.184,8.184,0,0,1-2.679.915h.244a6.24,6.24,0,0,0,1.33-.184l.734-.279m-.754.766-.579.062a3.825,3.825,0,0,1-1.826-.428,4.98,4.98,0,0,0,3.653-2.313,1.021,1.021,0,0,1,.546.793.758.758,0,0,1-.241.487c-.062-.122-.243-.184-.365-.244a.672.672,0,0,1,.3.609c0,.395-.365.668-.808.843l-.683.19m.336-3.225-.734.837a3.633,3.633,0,0,1-2.31,1.354l.181.059a3.818,3.818,0,0,0,2.762-1.856l.1-.395m-3.409,2.8v-.306a2.038,2.038,0,0,0,.365-.609,3.8,3.8,0,0,0,2.554-3.65c.247.181.734.849.671,1.215a3.053,3.053,0,0,0,1.036-.609,4.065,4.065,0,0,1-2.132,3.106l-1.227.472-1.268.38m.3-9.8-.778.434-.683.481a1.026,1.026,0,0,0-.243-.671,4.305,4.305,0,0,1,1.218-.244h.487m-.5-1.289-.5.422a3.024,3.024,0,0,0-.7,1.051l-.365-.428a9.29,9.29,0,0,1,1.1-1.093,6.624,6.624,0,0,0-1.218.971l.243-.668a2.731,2.731,0,0,1,1.645-.609h.365l-.567.353m-.116-2.842-.695,1.164a21.8,21.8,0,0,0-1.057,2.48l-.306-.181a15.56,15.56,0,0,1,.852-2.011,11.445,11.445,0,0,0-1.033,1.889l-.306-.122.793-2.07s1.521-1.948,2.616-2.192l-.864,1.042m-2.973,5.6.261.327.35.282.243-.244-.451-.14m-.647-1.262.793.244-.244.244M157.437,9.8l.059-.181.306.181m-.015,13.765-.35-.249c.059.244.365.428.609.609l.184-.244-.442-.116m-.35,1.88.793-.852a7.138,7.138,0,0,1,1.642-.181,2.571,2.571,0,0,1,1.524.365h-.244a4.631,4.631,0,0,0-2.922,1.033l-.4-.226-.395-.14m-.122,5.542.122-.671a3.4,3.4,0,0,0,1.4.428c1.033,0,1.58-.912,2.008-1.7a1.635,1.635,0,0,1,.184.915,1.215,1.215,0,0,1-.428.971,1.391,1.391,0,0,1,.181.671l-.059.532-.19.344-.077-.422a1.628,1.628,0,0,0-1.164-.737l-1.978-.327m.968-9.961.615.371a1.552,1.552,0,0,1,.671,1.066.469.469,0,0,1-.487.425,1.73,1.73,0,0,1-.731-.244l.668-.79h-.365a1.4,1.4,0,0,1-1.4-.731c.062-.244.244-.244.428-.244l.6.146M157.74,10.84l-.327-.048-.282-.137.062-.181a.847.847,0,0,1,.915-.244l.181-.306-.428-.546a1.4,1.4,0,0,1,.734-.368,1.508,1.508,0,0,1,.244.734,1.092,1.092,0,0,1-.668,1.01l-.431.086m-.609,7.546V16.378a26.842,26.842,0,0,1,2.741-4.565,31.342,31.342,0,0,0-2.741,4.015V14.674c1.036-1.642,2.557-3.834,4.446-4.505a25.634,25.634,0,0,0-3.656,5.925l-.79,2.293m0,1.829V19.179a21.271,21.271,0,0,1,1.645-3.35,7.415,7.415,0,0,1,2.985-2.982,33.495,33.495,0,0,0-3.775,7.733l-.246-.062-.487.122a43.718,43.718,0,0,1,2.741-5.6l-1.5,2.542-1.363,2.634m.731,3.834-.731-.365.549.609m-.564-15.386.624-.258-.244-.306a1.4,1.4,0,0,0-.731,1.1l.134-.312.217-.22m-.35,15.083.238.327.371.279.244-.244-.448-.157m.2-15.974-.244-.3A1.554,1.554,0,0,0,156.4,9.01a.959.959,0,0,1,.347-.508l.624-.282m-.365-.425-.181-.306a1.357,1.357,0,0,0-.731,1.1.764.764,0,0,1,.321-.508l.591-.282m-.935-.122.57-.306-.181-.244a1.4,1.4,0,0,0-.731,1.036l.342-.487m.208-.734L156.1,6.7a1.4,1.4,0,0,0-.731,1.1,1.127,1.127,0,0,1,.341-.54l.573-.315m-.306-.425-.244-.184A1.221,1.221,0,0,0,155,7.368a.993.993,0,0,1,.35-.517l.624-.336m-1.1,21.673-.172-.413a1.171,1.171,0,0,0-.986-.742l-.181.059c.045.137.57.41.983.745l.356.35m-.306-5.6-.356.27-.252.333-.668.062a4.286,4.286,0,0,0,.79-1.036l.609-.122.671.122-.793.371m-1.218,5.322.377.279.353.359c-.059-.365-.425-1.1-.849-1.1h-.428l.546.457M152.2,17.352l.526-.077.57.018a.528.528,0,0,0,.425,0l.062.122-1.583-.062m1.1-11.2-.122-.122L151.9,7l.122.122m-.306,17.534.722-.535.68-.621.849-.062a2.855,2.855,0,0,1,2.073.668l-.915-.119a7.309,7.309,0,0,0-1.728.244l-1.681.425M153.1,4.79l-.166-.1a20.664,20.664,0,0,0-1.583,1.642l.059.122c.122-.122,1.767-1.277,1.767-1.521L153.1,4.79m-2.055,23.58h-.059c0,.244.546.428.731.549l.487.546a1.238,1.238,0,0,0-.745-1.028l-.413-.068m.428-16.619.181-.585a.606.606,0,0,1,.549-.267l.244.062a2.014,2.014,0,0,0-.487,1.215,1.271,1.271,0,0,0-.974.671.7.7,0,0,1-.184-.487.471.471,0,0,1,.244-.395l.428-.214m-.671,6.7.062-.122.3.059a.679.679,0,0,0,.609-.728c.062-.122.184-.122.368-.122h1.642v.484l-.974.062.912.181v.184H150.8m.915-13.881-.184-.059-.912,1.033.181.122m.365,5.542-.092.279-.273.146c-.181,0-.362-.244-.362-.425a.407.407,0,0,1,.362-.428l.273.122.092.306m.184,18.567-.122-.377a1.2,1.2,0,0,0-.974-.719h-.181l.546.454.731.641m.915-27.943-.048-.146-.137-.1a28.736,28.736,0,0,0-2.192,3.531l.122.059L151.159,3.5l1.1-1.675m-3.106,17.9.062-.181a3.255,3.255,0,0,0,1.4-.915h3.1l-.122.487-1.033.122,1.033.122-.119.365h-4.324m.671-16.316-.122-.122-.671,1.28.244.122m2.266,27.271.84-.119a3.378,3.378,0,0,0-1.708-.428l-.971.062c.059.668-.609,1.1-1.1,1.4l1.913-.633,1.025-.282m-1.779-8.1-.912.125.609.059-.549.244a2.865,2.865,0,0,0-.428-.731H150.5l-.731.3M148.3,4.386V4.324l.671-1.523c0-.181-.184-.241-.306-.241-.184,0-.365.971-.365,1.093l-.184.671.184.062m-.365,16.5v-.425c.059-.184.122-.306.365-.306l.122.062c.122-.428.609-.184.671-.368h4.321l-.122.306-1.1.184,1.036.122-.243.425h-5.055m-.062,4.93h-.059a1,1,0,0,0,.122-.609l-.062-.365.428-.059a7.288,7.288,0,0,0,5.782-7c0-1.28-.849-4.627-2.557-4.627l-.365.122a1.173,1.173,0,0,1,1.1-.855c0-.728.122-1.277.974-1.58l-.062.487c0,2.192,1.826,3.166,1.826,6.453a8.048,8.048,0,0,1-6.7,7.974l-.428.059m5.055-4.808-.244.425-1.158.122.977.122-.306.428h-4.383l-.062-.184c0-.122.243-.244.243-.546v-.365h4.933M148.12,29.3l-.187-.27-.3-.11a2.758,2.758,0,0,1,.487,1.826,1.8,1.8,0,0,0,.122-.79l-.122-.656m-.365-4.764-.181-.184.181-.546.243-.425.306.3a1.227,1.227,0,0,1,.365.668l-.365.062-.549.122m-.181-21.8h-.244l-.122,1.339.184.059m.241,21.065-.19.54a.576.576,0,0,1-.416.312c-.122,0-.122-.122-.184-.181a1.347,1.347,0,0,0,.306-.731,1.572,1.572,0,0,0-.244-.609h.181a.5.5,0,0,1,.41.22l.137.448M146.722,0l-.19.083-.053.223.122,3.9h.244l.062-3.837-.024-.249m-.03,12.99.053.107c0,.122-.062.184-.306.184a.161.161,0,0,1-.181-.184c0-.122.122-.122.243-.122l.19.015m-.116,16.3-.137-.428a2.161,2.161,0,0,0-.181.855,8.266,8.266,0,0,0,.181,1.277,7.911,7.911,0,0,0,.184-1.277l-.048-.428m.2-15.9.146.19c-.059.184-.181.184-.487.184-.365,0-.425-.122-.365-.244.062-.184.184-.184.428-.184l.279.053m-.288,12.176-.2.22-.223.092-.244-.122a.915.915,0,0,0,.244-.671l-.059-.425c0-.122.122-.184.244-.184.243,0,.425.365.425.549l-.19.54m-.843-11.5.172-.157a3.587,3.587,0,0,1,.983-.024c.184,0,.428.059.487.181,0,.244-.059.244-.244.244a4.113,4.113,0,0,1-1.2-.077l-.2-.166m0-11.446h-.247l.247,1.4.181-.059m.609,10.471.852-.059a.45.45,0,0,1,.365.365.322.322,0,0,1-.365.362H145.81c-.184,0-.306,0-.306-.3,0-.244.122-.425.365-.425l.731.059m-.731,9.984-.671-.122h.915m-1.158,5.542.122.79v-.062a2.5,2.5,0,0,1,.428-1.764c-.214,0-.35.166-.437.38l-.113.656m.241-14.394.49-.22a10.075,10.075,0,0,0,1.948,0,1.008,1.008,0,0,1,.671.428,1.522,1.522,0,0,1,.181.793l-.181.974a4.653,4.653,0,0,1-.912,1.215c-.487.609-.487,1.767-.852,2.073a1.4,1.4,0,0,1-.184-.671c0-1.218.915-1.826.915-2.616,0-.122,0-.428-.184-.428a.161.161,0,0,0-.181.184l.059.425c0,.79-1.033,1.7-.731,3.106a1.146,1.146,0,0,1-.425-.671c-.184-.487-.125-1.158-.368-1.523a3.477,3.477,0,0,1-.912-1.823,1.413,1.413,0,0,1,.3-.938l.362-.306m-.217-.056-.395.327a1.7,1.7,0,0,0-.3,1.1c0,1.215.912,1.458,1.1,2.31.122.549.243,1.464.852,1.645l.244.3c.731-.484.671-1.583,1.461-2.435l.365-.546a2.472,2.472,0,0,0,.365-1.521,1.655,1.655,0,0,0-.365-1.158,1.476,1.476,0,0,0-.549-.244.475.475,0,0,0,.184-.425c0-.244-.244-.365-.428-.428l.062-.244c0-.181-.3-.3-.487-.3l.122-.184a.262.262,0,0,0-.244-.244l.062-.181a.41.41,0,0,0-.428-.368c-.243,0-.425.184-.3.549-.122,0-.184.122-.184.244l.062.184c-.184.059-.365.059-.428.244v.059l.062.244c-.306.062-.428.184-.428.487a.37.37,0,0,0,.181.365l-.585.223M144.827,3.4l-.2-.579-.223-.258c-.122,0-.181.122-.181.241l.668,1.586.122-.062-.19-.927m-1.393-.11-.122.122.549,1.28.181-.122m.03,5.681.814-.226a8.637,8.637,0,0,1,1.714-.157,15.532,15.532,0,0,1,1.7,0,6.83,6.83,0,0,1,2.132.731.747.747,0,0,0-.306.609l.062.3a5.176,5.176,0,0,0-1.889-.546l-1.7-.184a6.419,6.419,0,0,0-3.044.731l.062-.3a.747.747,0,0,0-.306-.609l.76-.347m-.333,13.557-.428-.244h2.679a.515.515,0,0,0,.428.122c.487,0,.059-.546.852-.425,0-.977.668-.184.606-.977h4.143l-.368.365-1.215.122.971.184-.668.428H148.3v-.062l-.428-.3-.546,1.215c-.79.062-1.767,0-2.557,0l-.487-.181.668-.059-1.215-.184m-.428-12.6-.113.279-.252.146a.4.4,0,0,1-.365-.425c0-.244.122-.428.365-.428l.252.122.113.306m-1.28-3.35.852-1.1A5.172,5.172,0,0,1,146.6,5.117a5.328,5.328,0,0,1,1.7.3,5.819,5.819,0,0,1,2.86,2.679,21.072,21.072,0,0,1-2.86.365h-1.7a16.69,16.69,0,0,1-3.451-.309l-1.117-.3m.549,21.275.549-.454h-.184a1.288,1.288,0,0,0-1.1,1.1l.731-.641m-.428-6.483-.235-.157-.19-.208H145.2c.062.122.306.365.306.549a.531.531,0,0,0,.306.549h-2.8l-.612-.428.855-.122-1.1-.184m-.546-18.139-.184.059.915,1.1.181-.122m-.3,6.21.511.214a.465.465,0,0,1,.282.395.755.755,0,0,1-.244.487,1.281,1.281,0,0,0-.977-.671,2,2,0,0,0-.484-1.215l.241-.062a.6.6,0,0,1,.644.54l.027.312m0,16.619h-.062a1.246,1.246,0,0,0-1.215,1.1c.181-.181.3-.425.546-.546l.641-.377.089-.172M142.2,3.282l-.713-1.17-.428-.526a.324.324,0,0,0-.184.244c0,.181,2.07,3.044,2.254,3.347l.122-.059L142.2,3.282m2.266,17.724.122.244v.122l-.122.059.671.671h-3.531l-.365-.428.974-.122-1.155-.122c-.062-.181-.184-.244-.184-.425h3.59M142.7,32.243l1.886.633c-.484-.3-1.155-.731-1.093-1.4l-.977-.062a3.2,3.2,0,0,0-1.7.428l.846.119,1.039.282m1.476-11.876.229.517h-3.653l-.244-.425.912-.122-.971-.184-.122-.306h3.531m-3.715-3.772.306-.745c.383-.846.989-1.874,1.764-1.874.3,0,.487.244.793.365l-.122-.668a.954.954,0,0,0,.425-.793l-.122-.306a6.174,6.174,0,0,1,3.409-.971l1.7.181a7.489,7.489,0,0,1,2.251.731l-.119.365a.954.954,0,0,0,.425.793l-.062.668c.244-.122.428-.365.731-.365,1.28,0,2.07,2.619,2.192,3.593l-.122.059a.407.407,0,0,1-.362-.244v.244l-.609.062-.365-.062-.184.244h-.122a.555.555,0,0,0-.487.244l.059.122a.53.53,0,0,1-.365.425l-.3-.059-.731.668a4.475,4.475,0,0,1-1.033.609c-.122.062-.122.184-.184.365-.244.062-.487.062-.609.246-.365-.062-.487.181-.671.487a2.212,2.212,0,0,1,.184.912c0,.181-.243.244-.243.546v.549l-.365.16a.526.526,0,0,0-.181.389c-.487,0-.365.181-.549.425l-.059.062a.9.9,0,0,1-.428-.184.556.556,0,0,1-.244-.487c0-.365-.671-1.158-.974-1.4l.059-.181c0-.365-.606-1.155-.79-1.461v-.244c0-.428-.3-.915-.3-1.4,0-.122.181-.181.244-.241-.184-.244-.184-.915-.365-.915s-.184.306-.243.365c0,.244-.365.306-.549.306a1.051,1.051,0,0,1-.915-.549c.244,0,.671,0,.671-.3a.164.164,0,0,0-.184-.184l-.365.122a.515.515,0,0,1-.3-.181c-.425-.428-.546-.184-.852-.365l-.059.059h-.184l-.487-.181m0,.365v-.122l.306.122m3.225,2.251.184.852v.244h-3.593l-.122-.428,1.036-.181-1.1-.122-.062-.365m.122-14-.059.062-.122.181c0,.244,1.642,1.4,1.764,1.521l.122-.122-.808-.843-.529-.532-.368-.267m-.181,13.272v-.3h1.945v-.122h-1.945l.059-.306,1.1-.181-1.1-.062.062-.365h1.4l.244.244h-.122c.244.609.546,1.036,1.218,1.036a.949.949,0,0,0,.731-.365l.122.3-.122.3.062.365h-3.593l-.059-.3.974-.184-.974-.059m1.155-10.837L141.242,7l-1.277-.974-.122.122m.546,21.308h-.425c-.428,0-.855.731-.855,1.1l.321-.359.959-.737M140.025,13.4l.282-.615a3.451,3.451,0,0,0,.2-1.942,1.447,1.447,0,0,1,.974,1.58,1.308,1.308,0,0,1,1.155.855l-.425-.122c-1.7,0-2.557,3.347-2.557,4.627a7.3,7.3,0,0,0,6.15,7.059l.122.365a1.744,1.744,0,0,1-.184.609,8.18,8.18,0,0,1-7.062-8.033,7.055,7.055,0,0,1,.742-3.332l.6-1.051m-.5,9.468-.356-.27-.793-.371.609-.122.671.122a4.3,4.3,0,0,0,.793,1.036l-.671-.062-.252-.333m.131,4.229-.184-.059c-.609,0-.974.606-1.1,1.155a2.678,2.678,0,0,1,.71-.662l.57-.434M138.525,6.851l.208.229.134.288a1.344,1.344,0,0,0-.728-1.036l-.184.184.57.336m-.814,17.257.451-.336a3.411,3.411,0,0,1,1.619-.333l.852.062a8.5,8.5,0,0,0,1.4,1.155,16.041,16.041,0,0,0-3.409-.668l-.912.119m.448-16.853.208.244.134.3a1.553,1.553,0,0,0-.728-1.1l-.184.244.57.315m-.021.906-.062-.309a1.784,1.784,0,0,0-.668-.728l-.184.244.57.306.345.487m.484,16.01,2.055.336,1.963.517a11.184,11.184,0,0,0,3.106,1.1l.487.181.365-.122.428.184c.244,0,.365-.184.546-.244h.365l.365-.062a16.042,16.042,0,0,0,2.86-1.033,19.786,19.786,0,0,1,3.959-.852,2.436,2.436,0,0,1,1.461.425,2.435,2.435,0,0,0-2.313-1.336,2.314,2.314,0,0,1,1.523-.977,1.37,1.37,0,0,0-1.036-.365h-.487a8.087,8.087,0,0,0,1.1-4.137,8.214,8.214,0,0,0-1.4-4.568,3.972,3.972,0,0,1-.484-1.886l.119-.974-.849.365a.909.909,0,0,0-.549-.122c-.3,0-.609.059-.731.365-.306-.731-2.495-1.28-3.166-1.4a16.308,16.308,0,0,0-1.7,0,6.033,6.033,0,0,0-3.712.915.8.8,0,0,0-.612.487.864.864,0,0,0-.731-.365.9.9,0,0,0-.546.122l-.852-.365.122.974a3.941,3.941,0,0,1-.487,1.886,8.221,8.221,0,0,0-1.4,4.568,8.087,8.087,0,0,0,1.1,4.137h-.487a1.5,1.5,0,0,0-1.093.365,2.3,2.3,0,0,1,1.58.977A2.586,2.586,0,0,0,137.1,24.6l.76-.3.76-.122M137.459,8.078l.232.223.143.285a1.586,1.586,0,0,0-.79-1.1l-.184.306.6.282m-.342.425.214.223.137.285a1.4,1.4,0,0,0-.731-1.093l-.244.3.624.282m.048,15.487-.437.2-.478.157.244.244.38-.279M137.1,9.438,137.04,9.1a1.7,1.7,0,0,0-.668-.754l-.244.306a1.379,1.379,0,0,1,.837.5l.137.285m-1.036.365.244-.181.122.181m-.1,16.913.324-.134.686-.1.428-.306-.428-.059a1.542,1.542,0,0,0-1.28.793l.27-.2m-.148-2.423.549-.609a2.369,2.369,0,0,1-.793.365l.244.244m-.365-1.826-.244-.244.731-.244m.184,1.339-.413.249-.5.116.306.244m.244-.912-.4.226-.448.14.3.244m.784-13.34.315.19v.181l-.255.137-.294.048a1.04,1.04,0,0,1-1.033-1.1,1.46,1.46,0,0,1,.181-.734,1.4,1.4,0,0,1,.731.368l-.428.546.184.306h.244l.356.053M134.608,23.2h.181c.852,0,2.313-1.1,2.132-2.07h.059V10.656A2.006,2.006,0,0,0,135.52,8.77a21.415,21.415,0,0,1,2.192-2.438l.365-.122a1.5,1.5,0,0,1,.974.487c1.889,1.829,5.782,2.132,8.22,2.132L148.3,8.77c1.948-.122,4.992-.609,6.513-2.073a1.373,1.373,0,0,1,.915-.487l.365.122a29.13,29.13,0,0,1,2.254,2.438,2.063,2.063,0,0,0-1.524,1.886v8.767l.059,1.826a2.679,2.679,0,0,0,2.195,1.948l-1.767,2.251a3.208,3.208,0,0,0-1.277-.244c-2.438,0-4.752,2.376-7.733,2.741L146.722,28c-3.834,0-6.088-2.738-8.889-2.738l-1.1.122L134.608,23.2m1.58-2.313.258.03.169.214c-.365.731-1.036.79-1.764.731a3.843,3.843,0,0,0,.668.79,1.731,1.731,0,0,1-.731.244.434.434,0,0,1-.487-.425c0-.546.65-1.164,1.283-1.437l.6-.146m-2.373,7.062.362-.561a5.9,5.9,0,0,1,4.265-1.936,4.327,4.327,0,0,1,2.435.974,11.737,11.737,0,0,0,6.394,1.889H148.3a11.607,11.607,0,0,0,4.811-2.011,4.264,4.264,0,0,1,2.251-.852c1.52,0,3.715.731,3.959,2.5a6.7,6.7,0,0,0-1.1-.184,1.656,1.656,0,0,0-1.28.549,3.542,3.542,0,0,0-2.679-1.583,4.4,4.4,0,0,1,2.982,4.018l-.546-.062-1.461.062a2.18,2.18,0,0,1-1.1-.184c-.428-1.583-1.277-2.616-2.985-2.616h-.059a3.987,3.987,0,0,1,2.8,3.653,5.814,5.814,0,0,0-2.985-.852,3.552,3.552,0,0,0-1.4.244v-.244a3.114,3.114,0,0,0-.852-2.07,3.281,3.281,0,0,1,.609,1.826,1.943,1.943,0,0,1-.974,1.7c-.731.546-1.218.546-1.7,1.4-.731-1.4-2.679-1.1-2.679-3.1a3.786,3.786,0,0,1,.546-1.826,3.469,3.469,0,0,0-.79,2.313,3.742,3.742,0,0,0-1.4-.244,5.654,5.654,0,0,0-2.982.852,4.072,4.072,0,0,1,2.8-3.653h-.122c-1.583,0-2.5,1.033-2.863,2.616a2.542,2.542,0,0,1-1.155.184l-1.4-.062-.609.062a4.4,4.4,0,0,1,2.985-4.018,3.652,3.652,0,0,0-2.679,1.583,1.658,1.658,0,0,0-1.277-.549l-1.158.184M134,22.466l-.68-.481-.722-.434h.425a2.491,2.491,0,0,1,1.158.244l-.181.671m-.05-1.289-.4-.493a4.85,4.85,0,0,0-1.013-.775h.306a2.478,2.478,0,0,1,1.645.609l.244.668-1.158-.971a8.318,8.318,0,0,1,.974,1.093l-.3.428-.294-.558m.077,3.87-.811-.2-.8-.068a3.092,3.092,0,0,1,1.645-.365,6.468,6.468,0,0,1,1.521.181l.731.852-.448.16-.4.2-.662-.442-.769-.324m.778-12.99,1.033,1.313.84,1.3v1.155A25.885,25.885,0,0,0,134,11.814a23.176,23.176,0,0,1,2.679,4.565v2.008l-.754-2.266a25.05,25.05,0,0,0-3.632-5.951,4.976,4.976,0,0,1,1.319.757l1.194,1.131m-.395,5.821.443.692.849,2.07-.3.122a11.444,11.444,0,0,0-1.033-1.889,15.556,15.556,0,0,1,.852,2.011l-.365.181a11.817,11.817,0,0,0-2.56-4.686,3.314,3.314,0,0,1,1.532.843l.585.656m.089-2.925.6.876a21.071,21.071,0,0,1,1.583,3.35v1.036l-1.3-2.634-1.437-2.542c.915,1.826,1.948,3.712,2.679,5.6a.877.877,0,0,0-.671-.059,36.8,36.8,0,0,0-3.893-7.733,5.112,5.112,0,0,1,1.749,1.262l.7.843m1.387,15.974-1.072.282-1.12.146c-1.1,0-3.409-.306-3.409-1.767a1.63,1.63,0,0,1,.306-.912l.059.3c.062-1.4.731-1.461,1.764-1.826a2.164,2.164,0,0,0-.849,1.523c0,1.218,1.4,2.07,2.495,2.07l.445-.05.431-.134.829-.365.122.731.059.184v-.184h.184l.852.122a8.613,8.613,0,0,1-3.837,1.218l-2.129-.181-.457.045-.457.137v-.122c.184-.487.793-.731,1.221-.912a8.935,8.935,0,0,0,2.495.425,3.374,3.374,0,0,0,1.61-.383l.46-.347m-6.629-6.649.3.015-.425-.365-.122.244m.484-1.523-.244-.181-.3.793m.546,1.4-.484-.428-.122.184.279.19m.083.175-.425-.244-.059.122c.059.122.3.122.425.122h.059m-.728-2.5-.193.52-.235.517.671-.915m-.731-1.764.107-.22.015-.267-.062-.365.184.059.365-.059a1.392,1.392,0,0,1-.368.737l-.241.116m.122,5.173.555.535a1.789,1.789,0,0,0,.781.258.408.408,0,0,1-.244.365h-.059a1.423,1.423,0,0,1-1.155-1.1l.122-.062m.122-17.593V8.1l-.487.122m0,10.044.074-.244-.015-.241h.122l.306-.122.181.484c0,.122,0,.244-.122.306l-.546-.184m.546,6.21.244.279c.223.383.439,1,1.033,1a.69.69,0,0,0,.487-.184l.184-.122a.633.633,0,0,1,.244.487.517.517,0,0,1-.428.487l-.244.062a2.333,2.333,0,0,1-2.067-1.461l.2-.365.342-.184m-.668-20.821.059-.609-.059-.425a.988.988,0,0,1,.609.974v.3l-.609-.244m0,4.143.113-.273.252-.092.181.059m-.731,22.95.7-.273.7-.089a3.913,3.913,0,0,1,1.215.181v.059a1.568,1.568,0,0,0,.549.549l-.549-.062h-.122a3.535,3.535,0,0,0-1.58.365l-.915-.731m.57-12.791-.2.068a.764.764,0,0,0-.428-.609.65.65,0,0,0,.368-.425l.425.852-.16.113m.039,8.164-.291.048-.2.137c-.122-.122-.184-.184-.184-.306s.368-.244.368-.244l.3.365m0-5.539-.05.16a.575.575,0,0,1-.437.2.385.385,0,0,1-.428-.425,1.353,1.353,0,0,1,.306-.671.983.983,0,0,1,.555.478l.053.252m-.656-13.325.261-.137.273-.053a.688.688,0,0,1,.487.181c-.059-.244-.365-.244-.609-.244a.913.913,0,0,0-.852.671l.44-.419m.71,1.072.374.077-.122-.365.122-.365-.184.062-.3-.062a.524.524,0,0,0-.549.428.807.807,0,0,1-.487.181l.76.039.389.006M127.24,13.7l.137.166.045.261h-.059l-.549-.122-.059-.306.3-.059m.374,9.343.6-.882-.244-.122a6.869,6.869,0,0,1-1.1,1.7l.739-.7m-.252-9.465h-.122l-.365.122-.059-.184.365-.244m-.244.915.356.2.131.291c0,.181-.122.244-.184.244-.244,0-.365-.306-.487-.428l.184-.3m-.024,3.377.389-.151a.524.524,0,1,1,0,1.033.546.546,0,0,1-.549-.546l.16-.336m.024,1.5.244-.374h.122a1.077,1.077,0,0,0,.609-.244,1.2,1.2,0,0,1,.793.974c0,.184-.122.244-.306.244a.85.85,0,0,1-.793-.731v.365c-.122.244-.3.609-.668.609-.306,0-.428-.059-.428-.425v-.184l.241-.086.187-.148m-.244-5.607-.244-.062.365-.549.181.246m.306-8.77-.915.977A.223.223,0,0,1,125.963,5c0-.214.2-.4.44-.526l.716-.208m-.184,14.308-.288.336-.38.151a.4.4,0,0,1-.365-.365.879.879,0,0,1,.3-.671l.184-.119.16.425.386.244m-.3-4.686-.146.273-.282.092a.349.349,0,0,1-.362-.365.39.39,0,0,1,.362-.365l.282.113.146.252m.059,3.347-.22.258-.083.35-.365.122a.35.35,0,0,1-.365-.365,1.177,1.177,0,0,1,.184-.609l.4.235.448.009m1.1,4.2.514.223a8.67,8.67,0,0,0,1.8.264c.428.062,1.1.244,1.1.731,0,1.036-1.036,1.1-1.1,2.5-.059.244-.365.365-.668.365-.425,0-.731-.549-.852-.915a1.414,1.414,0,0,0,.365-.668l.244-.244h.365l-.852-.122a27.922,27.922,0,0,0-2.738.609c-.244,0-.306-.122-.306-.3l1.155-1.129.977-1.31M125.6,14.977l-.184-.119c0-.244.244-.428.306-.549l.365.184a.858.858,0,0,1-.318.434l-.169.05m.143-10.8.4-.2.371-.074L125.535,5c-.181,0-.244-.062-.244-.184l.131-.347.318-.291m-.16,5.64-.166-.068c-.122,0-.122.122-.122.181,0,.122,0,.184.122.184s.244-.062.244-.184l-.077-.113m.077,4.193v.181c-.059.184-.181.184-.365.184-.122,0-.365,0-.365-.184s.306-.244.428-.244l.3.062m.151,1.019.214-.166.059.249.125.059-.071-.113-.05-.258v-.059l.119-.244h.306l.122.181-.083.342-.092.137.143-.074.092-.282.365.122a.288.288,0,0,0,.306-.3.777.777,0,0,0-.244-.428h.3v.306a4.085,4.085,0,0,1-.609,1.948,3.04,3.04,0,0,1-1.886-2.132c.062.184.365.184.549.184a.332.332,0,0,0-.184.3.391.391,0,0,0,.306.3l.211-.074m-.137,15.288.392-.246.324-.294a.46.46,0,0,1,.365.425c0,.609-1.1.609-1.583.609h-.244l-.059-.181.8-.312m.107-26.66-.35.374-.258.419c-.059.122-.059.244-.244.244l-.122-.244a.685.685,0,0,1,.35-.532l.624-.261m-.122,10.109v.122l-.365-.062c-.122,0-.425.122-.425.365l-.122-.731.912.306m-.419-1.212-.8-.677a1.684,1.684,0,0,0,.793-.425.568.568,0,0,0,.546.3c.184,0,.306-.244.306-.425a1.109,1.109,0,0,1,.79.668,6.323,6.323,0,0,1-.79,1.1l-.846-.54m.677,3.671.445.3.514.223a3.856,3.856,0,0,0,.915-2.373,1.589,1.589,0,0,1,.244.912c0,.852-.428,1.889-1.4,1.889a1.389,1.389,0,0,1-.731-.365,5.067,5.067,0,0,1-1.583-3.653l.365.3a3.652,3.652,0,0,0,.855,2.4l.377.362M125.809,8.8l.264.229.252.1a.492.492,0,0,0,.487-.244l-.181.062a.447.447,0,0,1-.487-.487l.122-.79c0-.306-.243-.612-.243-.855l.3-.609c.184-.3.671-.365.915-.546a4.5,4.5,0,0,0,1.036-.852h.487l.2.344.107.386a.455.455,0,0,0-.3.487.814.814,0,0,0,.181.487v.122a3.923,3.923,0,0,0,.912,1.889c-.122.181-.425.181-.487.362l-.181.062c-.3,0-.059-.181-.244-.244l-.059.122c0,.244.3.181.484.122l-.059.365a1.114,1.114,0,0,1-.912.306c.059.244.425.425.609.546a.284.284,0,0,0-.184.306c0,.244.244.425.244.609,0,.546-1.645.546-1.948.546l-.306-.059v-.122c0-.609-.244-1.218-.971-1.218h-.184a1.229,1.229,0,0,1,.974,1.033h-.122c-.244.062-.425-.365-.425-.668-.244.181-.062.974-.365.974s-.549-.609-.549-.852a.584.584,0,0,0-.059.546l-.549.365-.059-.244a1.224,1.224,0,0,1,.974-1.155,1.373,1.373,0,0,1-1.221-1.28c0-.425.368-.487.671-.487l.526.1.356.232m-1.856,3.561.365-.428a13.752,13.752,0,0,0,1.7,1.4.816.816,0,0,0-.365.306l-.921-.573-.784-.707m.3,8.22-.077.279c-.137.252-.41.434-.41.754l-.059-.184.056-.244.252-.422.056-.246a1.286,1.286,0,0,0-.244-.671l.327.276.1.457m.344,8.933.517-.214a1.594,1.594,0,0,0,.725-.745h.122c.3,0,.606.059.606.425,0,.793-1.7,1.461-2.373,1.461-.365,0-.609-.122-.609-.484l.122-.428.365.059.526-.074m-.968-26.042.5-.549-.059.365a1.918,1.918,0,0,0,.365,1.036c0,.365-.428.487-.671.549A.766.766,0,0,1,123.4,4.2l.062-.371.166-.359m-.107,8.523-.184-.2a1.934,1.934,0,0,1-.181-.9V9.316l.2,1.339.16,1.339M122.8,7.49l.2-.246c.567-.478,1.752-.318,2.658-1.277-.092,1-1.176,1.051-2.073,1.241l-.787.282m0,.974.695-.41a4.837,4.837,0,0,0,2.227-1.114C125.672,7.9,124.564,8,123.629,8.2l-.832.264m.668-1.91-.546.083h-.244c.79-.428,1.58-.609,2.373-.974a3.707,3.707,0,0,1-1,.671l-.585.22m-.852-.526.336-.285a6.129,6.129,0,0,1,1.369-.5l-.784.508-.921.282m.062,11.021.059.487-.122.971a1.668,1.668,0,0,0,.546,1.28c-.606-.244-.728-.671-.728-1.339l.244-1.4m.009-5.066.294.728a2.745,2.745,0,0,1,.425,1.295l-.059.244c-.184-1.1-1.155-1.829-1.155-3.166a4.559,4.559,0,0,1,.3-1.523,5.3,5.3,0,0,1,.062,1.4l.131,1.022m-.4,19.167-.16-.526-.059.244a1.166,1.166,0,0,0,.425.852l.184-.184-.389-.386m.781-16.363.2.49.077.493v.122l-.493-1.025c-.627-1.042-1.518-2.126-1.518-3.175a3.1,3.1,0,0,1,.368-1.645l-.122.915a5.206,5.206,0,0,0,.882,2.792l.606,1.033m-.333,17.6.7-.122.7-.3a2.487,2.487,0,0,1-1.155.244,1.092,1.092,0,0,1-1.218-1.218,1,1,0,0,1,.549-.912,1.7,1.7,0,0,0,1.7,1.4,1.73,1.73,0,0,0,.915-.244,1.384,1.384,0,0,0,1.1.974,2.847,2.847,0,0,1-1.7.546l-1.218-.059a2.2,2.2,0,0,0-1.583.546,1.089,1.089,0,0,1-.244-.546.858.858,0,0,1,.487-.731.827.827,0,0,0,.419.327l.555.1M121.458,7.977l.3.083.249.223.122.487v.119l-.731-.059a.9.9,0,0,1-.487-.731l.549-.122m-.428,11.567v.365c0,.609.609.306.671.852-.306-.3-.855-.181-.855-.79l.045-.238.14-.19m.048-6.3.255.517c.428.731,1.523,1.886,1.523,2.738a11.026,11.026,0,0,0-.912-1.4c-.671-.849-1.28-1.336-1.28-2.616a3.445,3.445,0,0,1,.181-1.1l.083,1.256.148.6m-.169-3.564-.306-.059a1.62,1.62,0,0,1,1.342-.671,1.03,1.03,0,0,1-.686.677l-.35.053m-.306,7.306-.229-.107-.137-.2v.059c0,.244.122.428.306.428.122,0,.3-.184.425-.306l-.365.122m.609-8.1-.327.086-.282.22a1.135,1.135,0,0,1-.487-.425.805.805,0,0,1,.549-.365l.249.288.3.2m-1.58,6.332-.261-.1-.166-.2v.059c0,.244.062.487.306.487a.69.69,0,0,0,.487-.3l-.365.059m.425,12.725.523.083a2.374,2.374,0,0,1,1.182.95,3.178,3.178,0,0,0-1.1-.181c-.731,0-1.7.487-1.7,1.339v.122a1.574,1.574,0,0,1,.731-.915c.184.062.668.244.668.428,0,.365-.912.546-.912,1.218,0,.852,1.277.912,1.948.852-.184.181-.365.365-.365.546h-.244a2.387,2.387,0,0,1-2.619-2.31,2.222,2.222,0,0,1,1.512-2.085l.377-.048m-.163-15.582-.261.294-.731.434-1.708-.731h.062c.609,0,2.011-.365,2.254-.974l.487-.122c-.122.244,0,.428,0,.731l-.1.368m7.225,8.1h.059l.306.425-.549.122.487.059-.059.184a1.781,1.781,0,0,1-.793,0,.879.879,0,0,0,.671.3l-.062.062-.425.059-.428-.059a1.272,1.272,0,0,0,.731.3l-.059.062h-.244a1.705,1.705,0,0,1-.549,0l.609.3-.122.122h-.181l-.487-.059a1.549,1.549,0,0,0,.546.3l-.244.244a1.211,1.211,0,0,1-.668,0l.487.246-.244.244h-.609c.062.122.244.181.365.244-.181.122-.79.606-1.033.606l-.49-.059-.487-1.033-.122-.184v.184l-.365-.062a.811.811,0,0,0-.484.184l.181-.062.731.122.059.244a3.657,3.657,0,0,0-.849.122h.181l.731.062.059.181-.79.122h.181l.731.122v.122a1.218,1.218,0,0,0-.668.181l.3-.059.365.059.062.184-.671.181.306-.059.487.059c.122.365.609.793.609,1.218l-.244.487a6.474,6.474,0,0,0,1.1,2.011,1.34,1.34,0,0,1-1.1.79c-.428,0-.549-.244-.609-.609a1.111,1.111,0,0,0,.425-.365l-.487.244-.059-.181L124.2,28l-.549.244L123.587,28a.808.808,0,0,0,.425-.365l-.487.244-.059-.122.425-.425a.785.785,0,0,1-.609.244c-.122-.244-.425-.428-.606-.668a.845.845,0,0,0,.484-.368,1,1,0,0,1-.668.246c-.731,0-.425-.793-.668-1.28-.122-.365-1.1-1.642-1.464-1.642-.3,0-.362-.062-.484-.306v-.244a2.768,2.768,0,0,0-.487-1.4,2.978,2.978,0,0,1,.244,1.464V23.5l-.306.059a.842.842,0,0,1-.425-.731v.184a.958.958,0,0,0,.181.546l-.181.184a1.862,1.862,0,0,1-.428-.549l.244.671-.365-.487.244.546-.059.062-.306-.487a.957.957,0,0,0,.184.546h-.062l-.306-.425.184.484-.122.122-.306-.546.184.609-.549.122c-.425-.244-.912-.609-.912-1.1l.122-.428.974-.781.793-.924h.181c.609,0,1.28-.728,1.642-1.093l.549.609c.181.059.671.181.671.362s-.793.244-.793.852c0,.365.487.671.852.731a.71.71,0,0,1-.365-.609c0-.487,1.158-.059,1.158-.79,0-.546-.852-.79-.852-1.218a1.307,1.307,0,0,1,.609-.915c0,1.158,1.521.977,1.521,1.586,0,.3-.546.606-.546,1.093,0,.974,1.764.793,1.764,1.889l-.122.425a.773.773,0,0,0,.306-.668c0-.915-1.1-.852-1.1-1.523,0-.365.793-.668.793-1.336,0-1.1-1.461-.793-1.461-1.889,0-1.033.79-1.155.79-2.373a3.538,3.538,0,0,0-.365-1.583c.184,0,.244-.244.244-.365a2.235,2.235,0,0,0-.425-1.036,3.12,3.12,0,0,1,.425-.915,1.491,1.491,0,0,0,.365.671v.365a4.948,4.948,0,0,0,1.036,3.166,1.243,1.243,0,0,0-.365.852,1.278,1.278,0,0,0,.428.852l-.062.487a.849.849,0,0,0,.609.731l-.059.244a.587.587,0,0,0,.454.564l.823.107-.716-.178c-.244-.1-.44-.249-.44-.493l.059-.365c-.181,0-.609-.306-.609-.549a.93.93,0,0,1,.244-.609.84.84,0,0,1-.425-.728,1.126,1.126,0,0,1,.3-.731l.122.122-.059.609c0,.3.059.484.425.484a1.4,1.4,0,0,0-.365.731.553.553,0,0,0,.609.487l-.122.306a.56.56,0,0,0,.609.549l.3-.062.062.428m-11.261-8.645.609-.122a.832.832,0,0,0,.3.484l-.912-.362m-.122,15.7-.062-.059-.059-.184h.181m-.244-5.173V20.518h.306v1.4m1.642-8.642-.434.312-.478.175a.411.411,0,0,1-.365-.549l-.184.062c-.365,0-.793-.184-.793-.549l.062-.365,2.192.915.639.22.641.267a1.507,1.507,0,0,0-.49.974,2.117,2.117,0,0,0,1.221,1.7c.059.668-.184,1.58.849,1.58h.244c-1.336-.425-.365-1.277-.971-1.886a1.077,1.077,0,0,1-1.036-1.218,2.706,2.706,0,0,1,.306-1.155c1.155.487,2.432,1.521,2.432,2.922a4.452,4.452,0,0,1-.852,2.251,3.548,3.548,0,0,0,.915-2.313,2.752,2.752,0,0,0-.428-1.523c.671.306,1.342.731,1.342,1.523a4.5,4.5,0,0,1-.184.974c-.425.852-2.495,3.409-3.469,3.409-.306,0-.368-.425-.368-.609l.062-.3a.6.6,0,0,0,.549-.246l.487.184a.711.711,0,0,0,.668-.549.694.694,0,0,1-.546.365.552.552,0,0,1-.428-.181,1.206,1.206,0,0,1-.731.365.6.6,0,0,1-.609-.549l.122-.365a.962.962,0,0,0,.731-.3.644.644,0,0,0,.549.3,1.007,1.007,0,0,0,.731-.487,1.168,1.168,0,0,1-.609.306.915.915,0,0,1-.549-.244l.122-.184a1.653,1.653,0,0,1-.974.487c-.365,0-.731-.181-.731-.609l.059-.365a1.4,1.4,0,0,0,.671.184.7.7,0,0,0,.793-.852v-.122c0,.365-.184.79-.612.79a1.364,1.364,0,0,1-.79-.362l.244-.244a1.073,1.073,0,0,1-.668.365,1.822,1.822,0,0,1-.609-.852,2.166,2.166,0,0,1,.244-.671l.365.062c0,.244.122.609.425.609a1.721,1.721,0,0,0,1.033-.428,1.977,1.977,0,0,1-.79.244c-.365,0-.428-.122-.365-.425v-.062c.365-.122.425-.549.974-.549h-.184c-.425,0-.365.49-1.033.49a.973.973,0,0,1-.852-.49c-.3-.059-.609-.244-.609-.487a1.138,1.138,0,0,1,.184-.484l.3.059a.918.918,0,0,0,.915.668,1.6,1.6,0,0,0,1.093-.546,1.758,1.758,0,0,1-1.093.3.659.659,0,0,1-.609-.425l.79-.3-.731.059c-.365,0-.79-.059-.79-.487a1.031,1.031,0,0,1,.181-.609h.365a.487.487,0,0,0,.549.428.9.9,0,0,0,.523-.214l.389-.395m-1.826,10.044.428-.122a1.487,1.487,0,0,0,.79,1.277l-.731.062-.487-1.218m0,0,.122.633.306.585h-.549L115.322,24l-.137-.621m-.306,3.041v-.059h.244l-.244-.184h.365l-.175-.045L114.942,26h.365L115,25.876l.062-.062h.365l-.306-.122.122-.122.428.122-.3-.181.365-.062c.487,0,.731.487.79.974a1.8,1.8,0,0,1-.79.306l-.451-.107-.4-.2m-.181-4.14V20.459l.365.059v1.764m.128,4.514.543.116a1.717,1.717,0,0,0,.974-.368h.059l.062.062c0,.306-.852.546-1.1.546a1.743,1.743,0,0,1-.977-.362l.244.059-.3-.306.493.252m-.107-2.815.223.555-.428-.062a3.25,3.25,0,0,1-.244-1.093c.122.059.244,0,.365,0l.083.6m-.751-.6h.244l.122,1.093h-.365c-.122-.059-.122-.3-.122-.425l.122-.668m-.2-6.884-.107.187c0,.425.671.546.974.609,0-.184-.668-.365-.668-.609,0-.122.852-.306.974-.365h-.428l-.5.068-.249.11m-.166,5.542V20.275l.365.062v1.886m-.425-10.715.425.062.731-.184c.122.244.306.306.549.428a2.214,2.214,0,0,1,.852.425l1.886.852,1.826.671a.816.816,0,0,0,0,.546,4.812,4.812,0,0,0-1.4-.852l-4.87-1.948m.3,3.531-.395.1a.372.372,0,0,0-.214.327c0,.306.365.612.609.793,0-.181-.365-.487-.365-.731,0-.365.668-.428.852-.428l-.487-.059m-.4,15.478.327-.356.442-.817h.122c.244,0,.365.062.365.306,0,.365-.974,1.461-1.339,1.461-.181,0-.244-.184-.3-.365l.386-.229m-.508-8.844v-1.7l.3.181v1.7m-.244-8.3-.172.134-.071.2c0,.365.428.668.671.79a1.549,1.549,0,0,1-.487-.79c0-.244.668-.365.849-.365l-.362-.062-.428.1m-.059-1.74-.252.053-.113.187c0,.428.668.671.974.731-.122-.122-.731-.546-.731-.731l.487-.122-.365-.119m-.731,9.07V19.544l.365.244v1.521m.122-11.686.454.1.457-.039.609.487a6.654,6.654,0,0,1-1.583.365.852.852,0,0,1-.852-.731l.915-.181m-.894,10.691-.143-.16V19.116l.244.244v1.158m.793,4.749.181-.244-1.28-.184-.852-.059.852.181M111.47,8.707l.2.166.288.077.549.059a.674.674,0,0,0,.428.549l-.977.062c-.609,0-1.336-.062-1.336-.793V8.648l.849.059M112.326,26l.244-.244-.612-.062-1.4-.181,1.4.365m-.425.668.181-.181-1.336-.184m.668-10.531.371.16.54.021a1.46,1.46,0,0,0,.734-.181,1.136,1.136,0,0,0,.852.3l.122-.059c-.428,0-.974-.184-.974-.731a.74.74,0,0,1,.181-.546c-.181-.122-.487-.365-.487-.549,0-.425.609-.731.609-.974,0-.365-.852-.731-.852-1.4l.122-.487,2.616,1.033-.059.425a.758.758,0,0,0,.3.612l-.059.487a.994.994,0,0,0,.306.79,1.15,1.15,0,0,0-.184.609c0,.428.428.668.793.79l.181.184a1.348,1.348,0,0,0-.3.671c0,.425.609,1.155,1.1,1.1l-.122.425a.753.753,0,0,0,.728.79l-.059.306a.812.812,0,0,0,.487.671v.059l.059.184-.974.122c-.484,0-1.093-.122-1.093-.734l.122-.487h-.487c-.49,0-.915-.059-.915-.609a1.43,1.43,0,0,1-.731.122c-.122,0-1.033-.244-1.033-.487s.668-.484.852-.546c.181.546.849.668,1.277.668v-.244h-.244c-.609,0-1.033-.122-.912-.79a.644.644,0,0,1-.549-.3,1.567,1.567,0,0,1-1.158.365l-.244-.062a.635.635,0,0,1-.244-.668l-.609.181a.785.785,0,0,1-.849-.974l.395-.077.395-.166m-.062-.059-.546.2-.546.107a.513.513,0,0,1-.549-.549V15.22h.122a5.616,5.616,0,0,0,1.339-.362l-.059.241.05.291.19.2M109.478,7.08l.35.288V7.43c0,.487.365.731.852.731l.546-.062.122.428C110.621,8.4,109.1,8.1,109.1,7.062l.122-.365.258.383m.778,6.682.166.184a1.139,1.139,0,0,0,.683.181h.852l.368-.062.3.428-.059.606.059.49-.671-.062c-.365,0-1.093-.122-1.093-.609l.119-.244h-.059a5.8,5.8,0,0,1-1.218.244c-.3,0-.671,0-.671-.365l.062-.365,1.158-.425m-.915,4.2-.045.113-.14.068a.193.193,0,0,1-.181-.181.159.159,0,0,1,.181-.181l.14.045.045.137m0,8.461H109.1a1.718,1.718,0,0,1-.428.793l.448-.35.223-.442m.024-.814.039-.829h.059c.184.244,0,.912.549.912.487,0,.425-.852.425-1.155l.609-.428h.244l.668.062,1.28.3c.487.122.974.122,1.1.671a10.56,10.56,0,0,1-1.764,1.521l-.612.549h-.731l.671.181.122.244h-.062a1.45,1.45,0,0,1-.731,0,.94.94,0,0,0,.671.184h.244l.428.425a1.286,1.286,0,0,0-.244.671,1.341,1.341,0,0,1,.425-.549l.122.122a1.286,1.286,0,0,0-.244.671l.428-.487h.181a1.635,1.635,0,0,0-.3.668l.425-.487.974.365v.122l-.083.344c-.16.395-.526.873-.891.873a1.19,1.19,0,0,1-.487-.181l-.244.3h-.059c-.184-.606-.062-.971-.612-1.521a7.941,7.941,0,0,0-2.251-1.461c-.3-.122-1.158-.122-1.158-.487a7.9,7.9,0,0,1,.365-1.1.387.387,0,0,0,.327-.148l.125-.362m.273,5.274.772.255.757.1a1.684,1.684,0,0,0,.79-.184.972.972,0,0,0,.306-.487c.062.244.122.365.365.365.122,0,.306-.122.306-.181a1.012,1.012,0,0,0,.425,0v.059a.386.386,0,0,0,.428.428,1.705,1.705,0,0,0,1.277-.852l.428-.062.181.122s-.974,1.1-1.339,1.1a.409.409,0,0,1-.306-.244,1.114,1.114,0,0,0,.306.731,6.465,6.465,0,0,0-2.376-.546h-.181a4.894,4.894,0,0,0-2.435.668v-.122a1.132,1.132,0,0,1,.428-.731,3.559,3.559,0,0,0-1.464-.609l-.059-.606.653.437.739.368m6.706-20.165.244.059a3.038,3.038,0,0,0,2.129-.974,3.626,3.626,0,0,1-1.886.731,1.359,1.359,0,0,1-1.036-.546,4.058,4.058,0,0,0,1.339-.915,3.8,3.8,0,0,1-1.826.793c-.306,0-.731.059-.915-.306a9.206,9.206,0,0,0,1.586-.731,6.265,6.265,0,0,1-2.313.609c-.306,0-.731-.122-.731-.487A7.17,7.17,0,0,0,114.7,8.22a7.7,7.7,0,0,1-2.192.549.825.825,0,0,1-.549-.122.954.954,0,0,1-.365-.731l.365-.122.734-.365-.734.244a3.441,3.441,0,0,1-1.093.181c-.244,0-.609-.059-.609-.365V7.43h.181A4.8,4.8,0,0,0,111.958,7l.244-.184-.244.122a4.584,4.584,0,0,1-1.521.365,1.058,1.058,0,0,1-1.033-.79h.365a3.1,3.1,0,0,0,1.336-.244l-.849.059c-.731,0-2.435-.3-2.435-1.336l.089-.356.273-.315,1.841,1.164,1.933,1.028L115.123,8.1c1.4.549,4.689,1.4,5.542,2.557a1.336,1.336,0,0,0-.609.549l-.609.122c-.181.546-1.583.79-2.07.79a.509.509,0,0,1-.546-.546l.3-.244h.181c.974,0,1.889-.122,2.316-1.1a2.047,2.047,0,0,1-1.951.912l-.546-.059a1.979,1.979,0,0,1-1.155.487.71.71,0,0,1-.609-.244l.974-.609-.983.419a3.364,3.364,0,0,1-1.028.19.75.75,0,0,1-.79-.731,4.067,4.067,0,0,0,1.093-.428l.306.062.428-.062.463.342.511.208m-8.22,7.668-.184.184c-.181,0-.241-.122-.241-.184,0-.181.059-.244.241-.244l.116.053.068.19m.487-5.3.169.285a1.441,1.441,0,0,0,.927.386l.487-.062v.062l-.837.249-.93.116c-.244,0-1.215,0-1.215-.487a1.152,1.152,0,0,1,.3-.609l1.1.059m-.365,17.715.425.122a1.86,1.86,0,0,0-1.093.731l.425.122c.122.062.244.122.244.244a.342.342,0,0,1-.365.306.676.676,0,0,1-.668-.671.825.825,0,0,1,.641-.8l.392-.056M106.6,18.873l-.053.193-.19.05c-.122,0-.184-.059-.184-.244a.161.161,0,0,1,.184-.181l.19.045.053.137m-.062-.3-.413.137-.137.41c0,.244.184.428.549.428a.472.472,0,0,0,.487-.428.573.573,0,0,0-.151-.41l-.336-.137m.5-2.6.594-.021-.731-.122c-.546,0-1.4.428-1.524.915a1.7,1.7,0,0,1,1.036-.671l.624-.1m-1.779.042.736-.365a3.666,3.666,0,0,1,1.636-.184,1.189,1.189,0,0,0-.79-.181,2.733,2.733,0,0,0-2.254,1.28l.671-.549m-.246,2.982-.077.169-.163.074a.253.253,0,0,1,0-.487l.163.077.077.166m.244,3.166-.181-.059-.062.059c0,.184-.3.487-.546.609l.463-.235.327-.374m-.365-3.469-.333.122-.151.3a.537.537,0,0,0,.484.549.59.59,0,0,0,.549-.549.387.387,0,0,0-.184-.3l-.365-.122m-.342,3.73.184-.285.1-.342-.181-.059a2.906,2.906,0,0,1-.609,1.033l.508-.347M104.3,16l.722-.493a5.409,5.409,0,0,1,1.393-.653A4.547,4.547,0,0,1,108,14.552l.668.122a.847.847,0,0,0,.428.487v.122a.647.647,0,0,0,.549.609l.852,1.583c.546,1.033.79,2.192,1.458,3.228a3.606,3.606,0,0,0,2.741,1.823c1.339,0,2.495-1.155,3.347-2.067a.758.758,0,0,0,.368.668,8.787,8.787,0,0,1-1.583,1.4,3.916,3.916,0,0,1-2.132.612,3.41,3.41,0,0,1-2.741-1.4,22.134,22.134,0,0,1-1.642-3.409c-.3-.609-.912-1.764-1.645-2.008a2.1,2.1,0,0,1,.549.487H109.1c-1.339,0-2.557.852-3.9.852a1.556,1.556,0,0,1-1.521-.915l.181-.3L104.3,16m-.092,1.592.46.184.529.059c1.339,0,2.738-.852,4.08-.974l.425.671-.365-.062c-1.4,0-2.679,1.033-4.08,1.033a1.992,1.992,0,0,1-1.823-1.215l.244-.487.187.469.345.321m.134-8.173.49.137a2.123,2.123,0,0,0,1.826,1.036,1.717,1.717,0,0,1-1.218.365,2.116,2.116,0,0,1-2.376-2.132l.062-.3a2.842,2.842,0,0,0,.76.677l.454.22m-.241,5.191v.122l-.264.19-.4.05c-.184,0-.793-.119-.793-.425l.244-.059.448.059.769.062M104,16.028l-.38.214a2.175,2.175,0,0,1-.852.2c-.122,0-.365,0-.365-.184s1.523-.365,1.826-.549l.062.062-.291.258m.107-.867-.125.151a1.628,1.628,0,0,1-.728.151c-.184,0-.974-.059-.974-.365,0-.122.059-.241.181-.241l.609.181.5.107.54.015m0,.3.062.125a5.026,5.026,0,0,1-1.586.362c-.3,0-.365-.059-.365-.362l.122-.125a1.465,1.465,0,0,0,.731.062l1.036-.062m7.73-3.59-.707.169-.751.074a1.537,1.537,0,0,1-1.28-.487l1.036-.425a3.413,3.413,0,0,1-1.4.3,2.08,2.08,0,0,1-1.642-.912,3.981,3.981,0,0,0,1.458-.365,4.953,4.953,0,0,1-1.277.181,2.1,2.1,0,0,1-2.011-.852h.062a2.458,2.458,0,0,0,1.461-.3,3.547,3.547,0,0,1-1.158.181,2.833,2.833,0,0,1-2.189-.974H105.2l-1.033-.11c-1.292-.148-3.106-.469-3.106-1.473l.184-.549,5.31,2.391,5.4,2.3V11.2l-.107.333-.015.336.38.54.353.312.2.137.16.229c0,.244-.734.549-.609.915l-.368.059h-.365a1.215,1.215,0,0,1-1.155-.487l.852-.3a3.587,3.587,0,0,1-1.4.244c-.428,0-.855-.122-.977-.549l.734-.365a2.261,2.261,0,0,1-1.1.244,1.392,1.392,0,0,1-1.277-.609l.668-.365a5.6,5.6,0,0,1-1.4.244,1.044,1.044,0,0,1-1.036-.79,1.977,1.977,0,0,0,1.221-.731,2.315,2.315,0,0,0,2.067,1.1,1.538,1.538,0,0,0,1.4.606,1.939,1.939,0,0,0,1.461.671l.63-.131.285-.113-.612.059a1.735,1.735,0,0,1-1.336-.487l.63-.166.585-.258m-9.679,2.254-.19.137-.053.229c-.668-.062-1.889-.793-1.889-1.586,0-.244.306-.365.549-.244l1.583,1.464m-.546.731-.184.362c-.609-.059-2.557-1.093-2.557-1.764a.454.454,0,0,1,.731-.365c.365.306.487.731.974,1.1l1.036.671m-2.863-4.627.422.175a5.666,5.666,0,0,1,.855,1.286h-.244a.508.508,0,0,0-.487.181,2.1,2.1,0,0,1-.728-1.277l.021-.229.16-.137m0-.428-.077.169-.166.074a.262.262,0,0,1-.244-.244A.224.224,0,0,1,98.5,9.56l.166.053.077.19m.956,4.933.321.181a5.373,5.373,0,0,0,1.342.609.38.38,0,0,0,0,.365c-.549,0-3.106-.793-3.106-1.4,0-.122.122-.671.306-.671l1.137.915m-.585.653,1.274.561.974.246.181.3h-.365c-.668,0-3.347-.244-3.347-1.218,0-.122.122-.365.244-.365l1.039.472M98.2,9.56l-.116.273-.249.092a.35.35,0,0,1-.365-.365.393.393,0,0,1,.365-.365l.249.116.116.249m-.793.549.448.151.4.336c.428.365.365.912.609,1.4-.244,0-.487.3-.668.425-.487-.425-1.221-1.155-1.221-1.823l.122-.383.306-.1m.122,3.775-.059-.122a.8.8,0,0,1,.731-.793.789.789,0,0,1,.971-.671.587.587,0,0,1,.609-.425,1.185,1.185,0,0,1,.855.546l-.365.062-.306-.122c-.244,0-.428.3-.487.425h-.184c-.487,0-.606.368-.668.793,0,0-.668.671-.609,1.1-.244.062-.546.184-.546.487a.755.755,0,0,0,.244.487c-.184.122-.122.244-.122.428-.244-.125-.612-.184-.612-.487a.439.439,0,0,1,.184-.368.724.724,0,0,1-.184-.606.791.791,0,0,1,.309-.636l.241-.1M97.349,9.5l-.045.2a.534.534,0,0,1-.5.282.489.489,0,0,1,0-.977.531.531,0,0,1,.5.285l.045.2m-.95,1.17.249.2a19.988,19.988,0,0,1,1.431,1.85c-.306,0-.487.244-.549.549-.609-.428-1.948-1.28-1.948-2.011a.624.624,0,0,1,.609-.668l.208.074M95.158,31.536l1.134-.585a7.532,7.532,0,0,1,3.187-.692A6.171,6.171,0,0,1,103.5,31.72a3.741,3.741,0,0,0-1.645-.244,7.74,7.74,0,0,0-2.008.546l.974-.852h-.546a8.267,8.267,0,0,0-2.863.731l.731-.852a4.585,4.585,0,0,0-1.4.107l-1.58.38M96.313,9.8l-.056.294a.7.7,0,0,1-.674.437.731.731,0,1,1,0-1.461.7.7,0,0,1,.674.437l.056.294m.974,3.837-.238.137-.19.229c-.487-.244-2.008-.915-2.008-1.523,0-.122.244-.79.487-.79.122,0,.532.425.95.882l1,1.066m-2.435-.549,1.886,1.1a.877.877,0,0,0-.059.671c-.671-.062-2.008-.609-2.008-1.4l.045-.229.137-.137m0-2.679.356.137.131.413a.432.432,0,0,1-.487.425c-.3,0-.546-.181-.546-.425a.534.534,0,0,1,.16-.413l.386-.137m.039,1.14.083.2c0,.244-.122.425-.365.425a.367.367,0,0,1,.062-.728l.22.1m-.1.93-.077.169-.166.074a.279.279,0,0,1-.244-.306l.181-.181.223.077.083.166m12.114.974-.576-.125a1.308,1.308,0,0,1-1.129-1.277l.122-.484a1.245,1.245,0,0,0,.977.742l.425.048.226.267.321.22-.2.282-.16.327v.122c0,.731,1.277.852,1.764.731v.244a6.476,6.476,0,0,0-1.886-.3,13.417,13.417,0,0,0-2.192.244l-.122.3a1.168,1.168,0,0,0,.306.609l-.122.122c-.244,0-.428-.365-.428-.609l.184-.425-.184.059a2.678,2.678,0,0,1-1.339-.425l-.122.244a.34.34,0,0,0-.365.3.369.369,0,0,0-.244.546.34.34,0,0,0-.184.306.447.447,0,0,0,.122.365c-.122,0-.181.122-.181.244a.409.409,0,0,0,.244.306v.181l-.062.062a.369.369,0,0,1-.362-.428.433.433,0,0,1-.184-.365.332.332,0,0,1,.184-.3l-.122-.246a.379.379,0,0,1,.241-.365l-.059-.119c0-.122.122-.306.244-.306v-.059a.233.233,0,0,1,.3-.184c.062-.181.184-.181.306-.181a8.074,8.074,0,0,1-3.288-3.959c-.122-.244-.428-.974-.79-.974h-.122a1.092,1.092,0,0,0-.974-.244,1.02,1.02,0,0,0-.734-.3c-.181,0-.425.059-.487.181l-.728-.181a.991.991,0,0,0-1.036,1.033v.428a.659.659,0,0,0-.425.609l.122.609c-.062,0-.184.122-.184.3l.122.365-.059.365.181.731c.974,2.738,4.08,3.775,6.7,3.775a10.379,10.379,0,0,0,2.8-.365,13.15,13.15,0,0,0-1.28,2.982,3.362,3.362,0,0,1-1.336,2.254,6,6,0,0,1-2.741.546c-1.033.122-2.376.734-2.376,1.948,0,.852.609,1.036.609,1.523,0,.609-1.4.912-1.4,1.948,0,.731.912,1.4,1.461,1.642a1.372,1.372,0,0,1-.609-.912c0-1.1,2.619-.549,2.619-2.07,0-.974-1.218-1.583-1.218-2.557l.059-.244c.852-.546,2.679-.181,3.959-.731a3.485,3.485,0,0,0,1.8-1.764l.273-.852.107-.549.015-.549c-.612,2.8-1.708,3.837-4.446,3.9l-1.218.059a1.233,1.233,0,0,0-.974,1.218l.306-.609v.122c0,.974,1.155,1.642,1.155,2.557,0,1.218-1.889.912-2.435,1.583.365-1.218,2.254-.549,2.254-1.767a.559.559,0,0,0-.244-.487l.059.244a.615.615,0,0,1-.546.671l.059-.365c0-.915-.852-1.4-.852-2.011a.8.8,0,0,1,.181-.484.915.915,0,0,0-.425.668c0,.546.487.852.487,1.339,0,.546-.671.668-1.036.912.306-.3.793-.487.793-.912,0-.609-.609-.671-.609-1.339,0-1.155,1.218-1.826,2.192-1.948.974-.184,2.011.122,2.863-.549,1.336-.912,1.521-3.044,2.129-4.565a1.908,1.908,0,0,0,2.008,1.339,6.871,6.871,0,0,0,2.438-.609.4.4,0,0,0-.244.425.469.469,0,0,0,.425.487.481.481,0,0,0,.487-.487.494.494,0,0,0-.549-.487l1.158-.362a.616.616,0,0,0-.244.425c0,.244.181.365.428.365a.4.4,0,0,0,.425-.365.51.51,0,0,0-.425-.425h.425c.793,1.458,1.036,3.347,2.251,4.624a3.6,3.6,0,0,0,1.951,1.036l-.062.549.062.546a8.391,8.391,0,0,1-1.951-.546.846.846,0,0,1-.365-.671,1.46,1.46,0,0,1-.912.974l-.487.3.062.428c0,.181,0,.487-.184.546-.487,0-.122-.852-.609-.852s-.059,1.28-.487,1.28c-.365,0-.306-1.1-.549-1.1-.365,0-.059,1.339-.487,1.339-.484,0-.241-1.1-.668-1.1s-.244.974-.609.974c-.3,0-.244-.915-.3-1.158l-.549.062a6.028,6.028,0,0,0,3.225-2.254h.122a.945.945,0,0,0,.793-.487,1.077,1.077,0,0,1-.609.244H109.1l.122-.181a1.072,1.072,0,0,0,.793-.731.827.827,0,0,1-.671.425l.184-.79a5.7,5.7,0,0,1-3.778,3.59,4.361,4.361,0,0,0-1.215.549,1.584,1.584,0,0,0-.549.974,1.617,1.617,0,0,1-.852.3h.793v.184a2.034,2.034,0,0,1-.915.306,2.055,2.055,0,0,0,.852,0v.241a1.348,1.348,0,0,1-.852.184,2.092,2.092,0,0,0,.852.059,2.453,2.453,0,0,0,.184.915v.059l.3-.059a.392.392,0,0,1,.365.3c0,.609-1.583,1.4-2.07,1.4-.244,0-.306-.059-.306-.244l.062-.306a2.355,2.355,0,0,0,1.446-.65l.2-.445-.232.365a2.837,2.837,0,0,1-1.414.549c-.062-.428-.306-.365-.609-.365-.181,0-.425-.062-.425-.306,0-.487,1.4-2.679,1.4-3.834,0-.428-.428-.549-.428-.852,0-.609,1.708-.609,1.708-2.313a2.65,2.65,0,0,0-.258-1.173l-.229-.347.273.624.092.713c0,1.889-1.829,1.523-1.829,2.5,0,.365.428.546.428.852,0,1.1-1.4,3.166-1.4,3.834,0,.609.487.549.912.549l.059.059c.122,0,.122.122.184.244l-.062.368.1.309.33.175.561-.119a3.484,3.484,0,0,0,1.449-.915.4.4,0,0,1,.241.306c0,.425-1.521,1.155-2.008,1.155l-.184-.062-.059-.181V30.44l-.048.214.048.214a6.479,6.479,0,0,0-3.166-.852,8.044,8.044,0,0,0-5.357,2.129,12.074,12.074,0,0,1,3.531-.912,7.019,7.019,0,0,0-.852,1.155,8.753,8.753,0,0,1,2.86-.912l.549-.122-1.764,1.521a9.56,9.56,0,0,1,3.59-1.155,16.148,16.148,0,0,1,1.767.181l-.244-.425a4.43,4.43,0,0,0,1.823.3.684.684,0,0,0,.365,0,4.643,4.643,0,0,1-.668-.974l.122-.244c.244,0,.487,1.1,1.218,1.1l.306-.059-1.4-1.948a.647.647,0,0,0-.546-.306l.119-.487a.5.5,0,0,0-.484-.546l-.365.059v-.79c0-1.339.244-2.132,1.521-2.557h.671c0,.3-.062,1.155.425,1.155.549,0,.428-.852.609-1.033l.062.059c.059.365.122,1.036.606,1.036.365,0,.487-.671.487-.974.062.244.184.731.428.852a2.654,2.654,0,0,0-.549,1.1v.122c0,.365.428.425.731.487a6.186,6.186,0,0,1,2.922,1.7,1.572,1.572,0,0,1,.244.912c0,.122-.122.306-.244.306a1.38,1.38,0,0,1-.668.181,4.528,4.528,0,0,1-3.531-1.826,4.9,4.9,0,0,0,.3,1.583h-.122a.957.957,0,0,0-1.093.974,1.025,1.025,0,0,0,1.033,1.036.682.682,0,0,0,.731-.609,1.035,1.035,0,0,0-.365-.609.909.909,0,0,1,.609-.184l.487.062a.739.739,0,0,0-.365.731l.122.546a5.169,5.169,0,0,1,2.86-.912h.244a5.8,5.8,0,0,1,2.313.425,2.823,2.823,0,0,0,1.221.184l1.277-.122-1.155-.852.122-.122c.425,0,.79.609,1.155.731l.122-.184c0-.609-1.339-1.764-1.948-1.764l.062-.428c0-.365-.246-.546-.612-.546l-.425.122c-.365-.184-2.132-1.461-2.132-1.889l.915-.731a4.611,4.611,0,0,0,1.764-1.826l.612.062v.487a1.188,1.188,0,0,0-.793,1.1l-.244.244c0,.306.668.609.915.668a.35.35,0,0,0,.365.365c.181,0,.244-.181.3-.365.244-.059.915-.362.915-.668a.262.262,0,0,0-.244-.244,1.115,1.115,0,0,0-.915-1.1V24.78c.852,0,2.8-.184,3.228-.974h.609a.7.7,0,0,0,.668.365,3.727,3.727,0,0,1,1.28,1.461c.244.609-.062,1.4.912,1.339a5.129,5.129,0,0,1,1.218,2.435v.059a.785.785,0,0,0-.244.612.708.708,0,0,0,.79.668l.428-.062.184.244v.122l-.734.122c-.609,0-1.336-.3-1.336-.974a.813.813,0,0,1,.122-.484h-.244a1.155,1.155,0,0,0-1.28,1.277l.184.731h-.49c-.365,0-1.336-.122-1.336-.609,0-.549.912-.671.912-1.277,0-.306-.306-.49-.609-.612a1.526,1.526,0,0,1,.974-.3,1.676,1.676,0,0,1,1.1.425A2.288,2.288,0,0,0,120,27.761a2.455,2.455,0,0,0-2.254,2.435,2.339,2.339,0,0,0,2.616,2.376h.609v.059a1.4,1.4,0,0,0,.734,1.1c.609-.852,1.945-.731,2.86-.731a2.7,2.7,0,0,0,1.826-.668l1.218.122.549-.062a4.365,4.365,0,0,1-.671-.912l.184-.244a5.972,5.972,0,0,1,.852.974.288.288,0,0,0,.3-.306.625.625,0,0,0-.3-.487,2.9,2.9,0,0,1,1.58-.365l.915.122-.915.365a2.144,2.144,0,0,0-.546,1.4v.487a4.1,4.1,0,0,1,.546-.852,2.464,2.464,0,0,1,.915-.184l2.07.184,1.247-.154,1.247-.333a1.883,1.883,0,0,0,1.036.244,3.94,3.94,0,0,0,1.158-.244h-.062c-.365,0-.912-.244-.912-.609a.408.408,0,0,1,.244-.365l.668.059a2.842,2.842,0,0,0,1.277-.3l-.181,1.764a4.977,4.977,0,0,1,3.653-1.521,2.811,2.811,0,0,1,1.28.244c.546,1.7,2.373,1.521,2.86,2.435.306-.549,1.155-.731,1.7-1.1a2.375,2.375,0,0,0,1.1-1.339,3.453,3.453,0,0,1,1.339-.244,4.736,4.736,0,0,1,3.59,1.521,8.908,8.908,0,0,0-.122-1.764,3.03,3.03,0,0,0,1.221.3,4.731,4.731,0,0,0,1.277-.244,1.073,1.073,0,0,1,.244.731.871.871,0,0,1-1.033.915l.79.059c.731,0,1.826-.122,1.767-1.1.731,0,1.7.244,1.7,1.1a2.559,2.559,0,0,1-.243.915,2.1,2.1,0,0,0,1.1-2.07l.546-.062a4.8,4.8,0,0,0,2.251.609c.671,0,1.829-.244,2.011-1.033l.609-.122h.122a.664.664,0,0,1,.793.79,1.126,1.126,0,0,0,.3-.731.866.866,0,0,0-.546-.79,6.148,6.148,0,0,1,2.373-.487c.425,0,.974.062.974.609,0,.609-1.1.546-1.523.487a2.243,2.243,0,0,0,2.376.852l.122.425c0,.549-.974.671-1.4.731a4.162,4.162,0,0,0,1.221.122c.606,0,1.948-.181,2.129-.974a3.363,3.363,0,0,0,2.863,1.461,2.035,2.035,0,0,0,1.886-.79,2.135,2.135,0,0,0,1.218.3c.731,0,3.166-.425,3.593-1.1l1.7.062a10.1,10.1,0,0,1,2.557.546,12.986,12.986,0,0,0,4.265,1.1,3.207,3.207,0,0,0,2.311-.852,35.7,35.7,0,0,0,5,.852c1.642,0,3.712-.731,3.712-2.738,0-1.4-1.033-2.011-2.313-2.192a1.372,1.372,0,0,1,.915,1.28,4.365,4.365,0,0,0-1.28-.122h-.852c.668.181,1.4.606,1.4,1.4,0,1.033-.79,1.461-1.7,1.461L197.5,32.51c.609,0,1.948-.122,1.948-.974a1.545,1.545,0,0,0-.365-.852l.062-.244a1.193,1.193,0,0,0-.609-.79l-.122.062-.184-.428a6.05,6.05,0,0,0-.793-1.7c-.546-.915-1.7-2.011-1.7-3.044,0-.912,1.033-2.619,1.4-3.653l.365-1.461a9.185,9.185,0,0,0,.184-1.764l-.062-.671v.244A6.859,6.859,0,0,1,193.6,15.1l-.184-1.336c.852.852,2.438,2.8,3.715,2.8h.181c-1.277-.365-2.982-2.011-3.956-2.922-.122-1.342-.425-2.679-.609-4.08a11.921,11.921,0,0,1,4.443,4.08,13.386,13.386,0,0,1,2.132,7.487v.852c0,1.036.852,1.583.852,2.435,0,.244-.122.3-.306.3-.365-1.155-.849-1.093-.912-2.616l-.059.425c0,1.28.79,1.889.79,2.435,0,.184-.062.244-.244.244-.487-1.1-1.033-1.1-1.033-2.557,0-.852.181-1.7.181-2.554a5.631,5.631,0,0,0-.514-2.459l-.46-.647.38.68a5.7,5.7,0,0,1,.413,2.242c0,.915-.244,1.7-.244,2.616,0,1.7,1.277,2.5,1.277,3.593a1.856,1.856,0,0,1-.3.793l.181.059a3.044,3.044,0,0,0,1.339-2.254c0-.971-.671-1.277-1.036-2.07a6.216,6.216,0,0,1-.059-2.129,7.021,7.021,0,0,0-.184-1.583,13.416,13.416,0,0,0-2.557-6.332c-2.922-3.472-7.79-5.357-12.176-5.966a35.249,35.249,0,0,0-5.052-.365,4.091,4.091,0,0,0-1.7-.609A3.179,3.179,0,0,0,175.151,3.9a3.016,3.016,0,0,0-1.277.306,4.141,4.141,0,0,0-1.948-.428A3.459,3.459,0,0,0,169.185,5.6c-.912,1.336-2.067,1.826-2.738,3.406a8.313,8.313,0,0,0-.428,2.073c-.3.244-1.033.912-1.033,1.336,0,.306.428.306.609.365a6.862,6.862,0,0,0-.668,2.073c-.487,0-1.036-.365-1.524-.365-.184,0-.365.059-.365.3,0,.487,1.036,1.033,1.4,1.155a10.677,10.677,0,0,0-.734,3.35c0,1.948.612,3.9,2.741,4.383l.609.062a3.32,3.32,0,0,0,2.679-1.523c.549-.306,1.826-.549,1.826-1.339,0-.487-.668-.425-.974-.425h-.3c-.062-.306-.368-1.28-.734-1.28-.546,0-.609.974-.609,1.339a2.9,2.9,0,0,1-1.58.852c-.612,0-.734-.487-.734-.974,0-1.461,1.158-2.86,2.192-3.775l-.119.731.119.306c.244,0,1.342-1.523,2.438-1.523.668,0,1.277.184,1.948.184a4.125,4.125,0,0,0,1.461-.244v.181a.688.688,0,0,0,.181.487.914.914,0,0,0-.243.549c0,.122.122.244.243.365l-.122.362a.483.483,0,0,0,.181.428,1.413,1.413,0,0,0-.181.668.634.634,0,0,0,.425.609c-.606,2.192-5.052,2.192-5.6,5.542l-.059-.184c-.306.062-.609.244-.609.609l.122.428c-.365.122-.912.425-.912.915,0,.728,1.458,1.215,2.008,1.4l-.487-.062a4.843,4.843,0,0,0-3.166,1.158l-.306.244v-.059a.863.863,0,0,0-.606-.855,4.463,4.463,0,0,0,.425-1.764l-.062-.428a2.659,2.659,0,0,1-1.093.915,5.292,5.292,0,0,0-1.221-1.826l.062.731a3.735,3.735,0,0,1-1.155,2.922,4.786,4.786,0,0,1-1.1.852v-.181a3.428,3.428,0,0,0-.612-1.829c-.3,1.1-.974,2.192-2.251,2.192a2.209,2.209,0,0,1-1.1-.244v-.119a3.576,3.576,0,0,0-.306-1.4A2.819,2.819,0,0,1,158.776,28a1.212,1.212,0,0,1,.671.122l.059-.425a2.252,2.252,0,0,0-1.033-1.767,5.449,5.449,0,0,1,2.922-.668l1.521.059a4.181,4.181,0,0,0-3.044-1.1,6.006,6.006,0,0,0-1.461.184l.974-1.277c.244-.062.244-.184.425-.368a5.2,5.2,0,0,1,1.889-1.033h.487a3.347,3.347,0,0,0-1.339-.365l-.852.122a3.627,3.627,0,0,1,1.948-1.583,2.212,2.212,0,0,0-.912-.184,2.412,2.412,0,0,0-1.461.428,9.62,9.62,0,0,1,2.557-4.018h-.306a3.775,3.775,0,0,0-2.495,1.523,33.389,33.389,0,0,1,2.982-5.176c-2.313.609-3.712,2.922-4.627,4.933A24.475,24.475,0,0,1,162.126,9.8c-2.254.549-3.775,2.557-5,4.446V11.021l.609.122a1.329,1.329,0,0,0,1.342-1.4,1.842,1.842,0,0,0-.609-1.339c-.671-.731-1.342-1.586-2.07-2.254a1.277,1.277,0,0,0-.671-.244,1.671,1.671,0,0,0-1.1.609,7.755,7.755,0,0,1-2.192,1.218l-.915.244A6.058,6.058,0,0,0,148.3,5.055a5.328,5.328,0,0,0-1.7-.3A5.816,5.816,0,0,0,141.608,7.8l-.184-.062a7.054,7.054,0,0,1-2.192-1.218,1.661,1.661,0,0,0-1.155-.609,1.089,1.089,0,0,0-.546.244c-.793.668-1.4,1.523-2.132,2.254a1.842,1.842,0,0,0-.609,1.339,1.327,1.327,0,0,0,1.339,1.4l.549-.122v3.228c-1.158-1.889-2.679-3.9-4.992-4.446a22.466,22.466,0,0,1,4.5,7.612c-.971-2.011-2.373-4.324-4.624-4.933a29.083,29.083,0,0,1,2.922,5.176,3.145,3.145,0,0,0-2.741-1.523,9.1,9.1,0,0,1,2.557,4.018,2.418,2.418,0,0,0-1.461-.428,2.212,2.212,0,0,0-.912.184,4.279,4.279,0,0,1,2.008,1.583l-.915-.122a3.347,3.347,0,0,0-1.336.365,3.536,3.536,0,0,1,2.373,1.033.65.65,0,0,0,.428.368l.971,1.277a6.1,6.1,0,0,0-1.521-.184,4.423,4.423,0,0,0-3.1,1.1l1.4-.122a6.309,6.309,0,0,1,2.985.671,3.054,3.054,0,0,0-1.461,2.251,1.2,1.2,0,0,1,.668-.122,2.8,2.8,0,0,1,1.642.671l-.3,1.339a3.717,3.717,0,0,1-1.461.365c-.974,0-2.495-.487-2.495-1.7a2.276,2.276,0,0,1,.971-1.764l-.606-.062a1.585,1.585,0,0,0-1.583,1.642l-.49.671-.122.549.062.425a2.534,2.534,0,0,0-1.155-.3,6.859,6.859,0,0,0-1.586.362,1.871,1.871,0,0,0-.79-.484,1.193,1.193,0,0,0,.244-.734c0-.546-.609-.609-1.033-.546l-.915-1.889a.576.576,0,0,0,.122-.425c0-.671-.487-.974-.671-1.523l.671.062c1.4,0,2.557-.974,4.018-.974v.184l-.609.546h-.059a.78.78,0,0,0-.609.668l.122.184c-.244,0-.612.122-.612.365,0,.181.244.244.306.425a1.519,1.519,0,0,0-.793,1.339,2.491,2.491,0,0,0,.244,1.158,2.882,2.882,0,0,0,1.28-.974,7.639,7.639,0,0,1-.3,1.1,2.136,2.136,0,0,0,1.4-1.7.489.489,0,0,0,.3-.306h.306l.181-.059a.669.669,0,0,0,.612-.671.848.848,0,0,0-.428-.731v-.059c0-.609,1.218-1.4,1.218-2.5,0-.79-.79-.912-1.4-1.033a16.443,16.443,0,0,1-2.31-.365l.244-.3a1.354,1.354,0,0,0,.79-1.158,2.324,2.324,0,0,0-.365-1.1,1.151,1.151,0,0,0,.184-.487,1.157,1.157,0,0,0-.306-.609,1.124,1.124,0,0,0-.546-1.033,2.838,2.838,0,0,0,.365-1.4,3.434,3.434,0,0,0-1.464-2.679l.731-.79c.368-.062,1.767.059,1.767-.671l-.181-.609c.484-.059.484-.3.484-.731l.122-.181-.059-.244V9.194c0-.365.487-.306.487-.609a6.367,6.367,0,0,0-.793-1.339,3.659,3.659,0,0,1-.059-1.4,1.356,1.356,0,0,0-.365-1.033V4.568a.625.625,0,0,0-.3-.487c0-.731-.122-1.521-1.036-1.642l.062.244-.184.849a4.23,4.23,0,0,0-1.461-.3,4.3,4.3,0,0,0-1.523.3l-.059-.365a1.2,1.2,0,0,1,.122-.668,2.05,2.05,0,0,0-1.28,1.826A3.715,3.715,0,0,0,121.823,7.8c-.062-.122-.306-.184-.428-.184a1.375,1.375,0,0,0-.852.365l.122.244a1.1,1.1,0,0,0-.974.549,1.141,1.141,0,0,0,.731.487l-.244.546.974.244-.306.549h-.059c-1.155-1.28-3.166-1.826-4.749-2.435a23.356,23.356,0,0,1-4.08-2.073l-3.834-2.313A1.772,1.772,0,0,0,107.455,5c0,.79.912,1.336,1.58,1.458l-.181.793c0,.852.793,1.218,1.461,1.339V8.77c0,.852.79,1.1,1.521,1.033a.583.583,0,0,0,.122.428,1.344,1.344,0,0,0,1.28.425c0,.306.062.549.306.671l-1.586-.671c-3.531-1.523-7.181-2.922-10.712-4.568a1.9,1.9,0,0,0-.365.974c0,1.036,1.458,1.28,2.189,1.4l-.059.731a1.983,1.983,0,0,0,2.129,2.132,1.616,1.616,0,0,0-.181.728c0,.778.65,1.176,1.31,1.327l.639.074M89.557,23.99h-.549c-1.339,5.111-3.288,7.546-8.342,7.546-5.357,0-6.391-.79-6.391-6.756V17.352h2.741c3.65,0,5.966.79,6.269,5.173h.487l-.122-5.9.122-5.3h-.487c-.3,3.956-3.225,4.992-6.453,4.992H74.274V2.985h1.948c3.228,0,7.914.122,9.925,3.469A13.274,13.274,0,0,1,87.484,10.6h.49c-.125-1.826-.125-3.534-.125-5.357l.125-3.653a128.184,128.184,0,0,1-15.282.487L64.23,1.951V2.5c3.347.184,4.5.609,4.5,4.443v20.7c0,3.775-1.215,4.2-4.5,4.446v.487c3.166-.122,6.391-.122,9.557-.122a136.906,136.906,0,0,1,14.977.487l.327-4.475.466-4.472M61.43,32.572v-.487c-3.288-.244-4.568-.671-4.568-4.446V6.94c0-3.775,1.218-4.259,4.568-4.443V1.951l-7.368.122-7.243-.122V2.5c3.406.184,4.5.609,4.5,4.443v9.194l-7.911.062H37.5V6.94c0-3.775,1.218-4.259,4.565-4.443V1.951l-7.3.122-7.246-.122V2.5c3.35.184,4.505.609,4.505,4.443v20.7c0,3.775-1.218,4.2-4.505,4.446v.487l7.246-.122,7.3.122v-.487c-3.288-.244-4.565-.671-4.565-4.446V17.109l6.7-.059,7.122.059V27.64c0,3.775-1.1,4.2-4.5,4.446v.487l7.243-.122,7.368.122M25.873,11.264l-.059-6.088.059-3.531a43.311,43.311,0,0,1-4.808.306l-5.782.059h-4.63l-5.9-.059A40.861,40.861,0,0,1,0,1.645L.062,5.176,0,11.264H.428C1.461,6.21,2.373,2.922,9.073,2.922h.974l.122,8.829V27.64c0,3.35-1.218,4.14-5.117,4.446v.487l7.917-.122,7.852.122v-.487c-3.837-.306-5.173-1.1-5.173-4.446V11.751l.122-8.829h1.093c6.088,0,7.612,3.593,8.526,8.342h.484"/>
</svg>
