<svg xmlns="http://www.w3.org/2000/svg" width="972" height="972" viewBox="0 0 972 972">
  <g id="Map_base" data-name="Map base" style="isolation: isolate">
    <g id="Group_49590" data-name="Group 49590" transform="translate(-397.893 -2813.215)">
      <path id="Path_8412" data-name="Path 8412" d="M2002.324,349.755l-.816,1.856-.3,1.555.517,1.565.605,1.524.007,1.164-.893.837-.842.84-.989.916-1.156.648-1.34.294-1.809.322-.716,0-1.274.215-.716.622-2.769,3.068-2.51,2.681-1.443,1.763-.982.488-1.133.177-1.6.392-3.293,1.237-3.828,1.358-5.058,1.7-5.073,1.884-3.289,1.792-2.023,1.02-4.489,1.643-2.514.9-.956.5-1.868.951-1.543,1-2.256,1.51-1.868,1.452-1.879,1.462-1.51,1.025-1.65.746-1.588.519-3.068.521-3.769.689-3.836.522-5.187.751-3.762.744-2.592.4-1.85.449-1.724.722-2.374,1.226-.683.477-.011-.014-1.252-1.35-1.163-1.252-1.4-1.541.041-2.633-.864-2.938-1.277-1.077-.3-.514.476-.777-.258-2.167-1.049-2.149-2.3-1.278-5.8-.639-4.4-.182-2.053-.608,2.093-2.335.709-2.069.4-2.738.447-1.057.568-5.664-.875-2.3.609-.632,1.717.515,1.222-.426,2.082-.116,1.846-.265,1.255-1.892-1.248-3.023-4.5-.208-5.712,1.2-4.264-1.355-3.854-.242-2.171-1.57-1.813,4.757,1.4,1.838-3.474,5.172-4.737-3.91,3.5-3.634-5.992-4.217-4.5,2.464L1854.523,361l-.166.092-4.548-1.189-.635.18-4.179,1.183-1.713-.962,1.957-4.14-.063-.024-8.185-3.2-.007,0-2.894-2.744-.4.226-2,1.123-2.141-1.566-2.433-2.414-3.433-3.623-.591-.746-2.082-2.636-.768-.97,8.358-1.991,2.813-.981,2.721-.951.126-.044-.022-.082-.705-2.464,1.809-2.411-2.322-.965-1.1-.456-1.547-.642-1.931-1.437-7.635-5.672-9.466-7.54-.831-.84-.325-.329-.284-.288-1.421-1.44-4.135-2.162-4.423-2.767-3.138-1.925L1793.5,301.9l-2.71-1.562-5.039-2.471.521-.755,1-1.072.358-.384,1.484-1.623,1.351-1.379.133-.132,1.676-1.569,1.285-1.9.964-1.4,1.034-1.231,1.676-1.624,1.61-2.069,3.736-4.642,3.238-4.239.3-.368.768-.928.41-.494,1.805-2.07,2.127-2.629,4.057-4.866,2.832-3.8,5.988-7.716,4.508-5.759,4.135-5.632.709-.95,1.093-1.453,2.7-3.689,2.448-3.075,2.643-3.077,1.868-2.4,2-2.516,1.418-2.012,1.222-1.621,2.126-2.406,5.043-6.743,1.222-1.844,1.421-1.344,2.315-3.464,3.474-4.918,2.481-3.35,0-.008,4.593,1.988,4.009,2.829,5.039,3.425,4.582,3.482L1893.1,212l4.386,2.874,4.257,3.373,3.326,2.2,3.862,2.653,5.232,3.7,6.213,4.2,6.93,4.973,6.191,4.23,4.316,2.872,5.826,4.147,5.881,4.364,5.686,3.81,4.386,3.152,5.364,3.926,5.036,3.814,5.741,4.246,3.515,1.923,1.982,1.136,1.521.951,2.1,1.889,3.452,2.7,5.944,3.865,1.462,1.123,1.074,1.191.923,1.556.624.739,1.218.759,2.485,1.825,1.89,1.211,1.078.684.731,1.007.952.754,1.429,1.043,3.234,2.026,3.913,2.259,3.67,1.993,2.429,1.888,1.429.99,4.644,3.1,1.532,1.185.643,1.581.214,1.665-.329,1.32-.764,2.177-.76,2.668-.565,2.217-.185,1.486-.055,1.521-.587,1.71-1.174,2.156-1.569,1.642-2.008,2.023-.9.737-2.466,1.463-2.385,1.729-2.773,2.181-1.384,1.143-.358.889-.369,1.974.007.958-.469,1.4-.941,1.051-1.768,1.3-2.075,1.405-2.5,1.666-1.122,1.354" transform="translate(-773.821 2705.548)" fill="rgba(255,255,255,0)" stroke="#fff" stroke-linecap="square" stroke-linejoin="bevel" stroke-width="3" fill-rule="evenodd"/>
      <path id="Path_8413" data-name="Path 8413" d="M1544,515.835l.768.97,2.082,2.636.591.746,3.433,3.623,2.433,2.414,2.141,1.566,2-1.123.4-.226,2.895,2.744.007,0,8.185,3.2.063.024-1.957,4.14,1.713.962,4.179-1.183.635-.18,4.548,1.189.166-.092,7.207-3.948,4.5-2.464,5.992,4.217-3.5,3.634,4.737,3.91,3.474-5.172-1.4-1.838,1.813-4.757,2.171,1.57,3.854.242,4.264,1.355,5.711-1.2,4.5.208,1.248,3.023-1.255,1.892-1.846.265-2.082.116-1.222.426-1.717-.515-.609.632.875,2.3-.568,5.664-.447,1.057-.4,2.738-.709,2.069-2.093,2.335,2.053.608,4.4.182,5.8.639,2.3,1.278,1.049,2.149.259,2.167-.476.777.3.514,1.277,1.077.864,2.938-.041,2.633,1.4,1.541,1.163,1.252,1.252,1.35.011.014-.986.693-1.746,1.235-2,1.348-1.979,1.373-4.8,3.89-3.555,2.675-4.855,3.535-6.313,4.483-3.862,3.077-6.675,4.935-3.171,2.75-2.208,2.2-2.249,2.544-2.418,1.688-5.165,4.031-1.96,1.335-1.643.6-3.234,1.43-3.511,1.606-2.422-.536-2.186-.228-2.389,1.039-1.023,1.055-.269,1.977-1.4,2.371-1.514,1.963-1.676,1.688-1.469,2.49L1554.5,633.2l-1.931,2.712-5.855,6.15-2.3,1.912-2.437,1.89-1.44,1.744L1539.4,649l-1.595,2.285-.716,1.427-.731,1.694-1.078,1.123-1.732,1.276-3.072,2.577-4.168,3.35-3.958,3.437-5.508,4.788-2.407,2.138-4.017,2.629-.953.919-.605,1.052-.572,1.181-.8,1.111-1.831,1.728-3.068,3.208-3.278,3.437-3.075,2.946-1.215,1.144-.617.391-.764.24-.953.277-.842.185-1.307.369-1.787.417-2.51.506-1.226.362-1.226.576-2.1,1.3-1.887,1.093-3.171,1.628-.96.79-.661.753-.916,1.192-.458,1.119-.539.893-.742.69-1.447,1.661-1.765,2.075-1.082,1.348-.819,1.2-.506,1.019-.82,2.016-.307.993-.317.742-.439.672-.757.613-1.244.945-1.5,1.436-1.713,1.761-1.322,1.34-.779.949-1.141,1.174-.882,1.174-1,.96-.731.727-.572.5-.864.155-.266.03v-.011l.336-4.109-9.769-2.806-11.663-2.917-1.052-4.105,4.5-.65-2.979-8.454-1.65-5.722.853-2.248L1416.79,677.51l8.676-6.284.842-3.37L1424.1,665l-6.151-4.447-5.394-1.461-4.083-.846-2.858-.8-.421-.118-.657-.183-1.281-.119-.373-.035-3.943-.366-3.212-1.35-1.935-4.847-.908-3.981-3.216-1.724-4.227-.721-5.527.16-5.811,1.159-6.25.787-5.648,2.777-6.557-.954-7.812-2.254.687-.857,1.61-1.9,1.931-1.905,2.64-2.689,2.9-3.08,2.514-2.354,4.205-4.361,2.189-2.129,1.03-1.343,1.285-1.678,2.964-2.8,2.378-2.687,1.935-2.016,1.61-1.458,3.352-3.361,2.378-2.8,2.965-2.858,2.448-2.632,2.706-2.689,3.995-4.145,2.983-3.3,2.256-2.3,3.027-2.969,2.643-2.466,1.1-1.065,2.193-1.795,2.714-2.188,2.577-2.632,1.543-1.624,1.68-1.569,1.8-2.238,1.484-1.568,2.414-2.213,1.846-2.051,2.337-2.6,3.286-3.471,3.419-3.25,1.994-2.629,2.832-3.246,1.931-2.517,2.647-2.076.9-1.008.838-.729.517-.56.251-1.059,1.805-1.848,2.4-3.051,2.832-3.246,1.676-2.014.96-1.62,1.543-2.013,1.093-1.788.771-.951.639-1.117-.007-1-.591-.72-1.049-.828-.72-.886-.022-.013-.808-.449-.65-.36-1.074-1.008-.476-.878-.428-1.423.679-.673.38-.377,1.17-1.482.284-.361.188-.9.343-.5.41-.113.3-.083.886-.888,1.1-1.062,1.137-.787.391.364-1.115,1.257-1.576,1.511-.934.736-.4.292h0l-.174.873h0l-.783.994h0l-1.026,1.047-.2.189-.048.837.5,1.134.86.8h0l1.613,1,.018.011,1.122-.464.018-.007,1.174.661,1.37.659,1.462.154.037,0,.842-.284.125-.836-.007-.612.845-.228.971-.451,1.163-.675,1.3-.62.428-.584-.019-.024-.436-.5-.044-.049-.321-.372-1.436-1-1.119-.777-1.362-.891-.07-.047-.62-.769-.229-.283.343-.19,1.041.877h0l.713.622.395.216.65.358,1.041.862.724.106,2.359-.843.875-.444.7-.583.011,0,.583-.19,1.477-2.069,3.991-4.477,1.351-1.722.579-.74,1.617-1.346,2.577-2.743,2.7-3.467,3.548-3.639,4.511-4.647,4.275-4.914,1.938-1.626,1.034-.9.834-.793.521-.495,2.252-2.8,2.256-2.574.325-.485.439-.66,5.04,2.471,2.71,1.562,3.282,2.288,3.138,1.925,4.423,2.767,4.135,2.162,1.421,1.44.284.288.325.329.831.84,9.466,7.54,7.635,5.672,1.931,1.437,1.547.642,1.1.456,2.322.965-1.809,2.411.705,2.464.022.082-.125.044-2.721.951-2.813.981L1544,515.835" transform="translate(-497.583 2529.293)" fill="rgba(255,255,255,0)" stroke="#fff" stroke-linecap="square" stroke-linejoin="bevel" stroke-width="3" fill-rule="evenodd"/>
      <path id="Path_8414" data-name="Path 8414" d="M1106.97,936.73l.908,3.981,1.935,4.847,3.212,1.35,3.943.366.373.035,1.281.119.657.183.421.118,2.857.8,4.083.846,5.394,1.461,6.151,4.447,2.2,2.852-.842,3.37-8.676,6.284,13.878,20.191-.853,2.248,1.65,5.722,2.979,8.454-4.5.65,1.052,4.105,11.663,2.917,9.769,2.806-.336,4.109V1019l-1.141.114-1.274.314-1.27.487-.742.473-1.111,1.185-.506.886-.421.687-.428.561-.775.768-.557.2-.631.321-.794.232-.956.4-.967.665-.812.617-1.2,1.366-1.388.838-1.875,1.089-2.089,1.318-1.931,1.045-1.5.986-2.023,1.584-1.632,1.241-.458.9-.044.912-.1,1.178-.572.332-.631.273-.642.347-.6.561-.561.624-.709.9-.783.266-1.189.007-1.17.092-1.373.358-1.049.48-.639.513-.332.41-.2.565-.325.716-.461.45-.517.3-.654.218-.679.635-.432.587-.155.687-.657.676-.967.2-.631.1-.03-.007-.978-.229-1.067-.365-.011,0-.779.4-1.2.635-1.414.819-2.2,1.052-.949.48-.406.469-.093.724-.21.838-.487.9-.694.742-1.093,1.085-1.351,1.447-1.709,1.717-1.185,1.432-.58.783-.786.683-.882.244-.964.31-1.174.664-1.4.949-.96.657-.642.908-.417.912-.255.938-.465,1.325-.834,1.595-.93,1.628-.89,1.41-.893,1.148-1.108,1.056-1.041.953-.945.819-.945.731-1.152.823-.89.591-.916.62-.7.783-.565.893-.635.923-.506.487-.868.428-1.163.554-1.074.358-.532.421-.668.672-.93.9-.879,1.037-.79.823-1,.916-1.624,1.277-2.407,1.709-1.916,1.713-2.485,2.208-.628.8-.041.572.236.436.8,1.037.306.716-.365.742-.406.307-.506.354-.709.7-.329.41-.14.631-.151,1.045-.388,1.126-.668.318-.764.266-.735.513-.5.565-.716.938-.93,1.4-1.351,1.9-1.4,1.805-1.757,2.437-1.392,2.068-1.159,2.108-.34.473-.059.757.081,1.1.365,1-.17.683-1.059.727-.458.509-.129.753.011.967.373,1.24.325,1.469-.72.823-.044-.007-1.813-.255-12.279-1.72-4.364-.609-6.6-6.808-2.795-3.843-.535-.336-3.072-1.927-3.921-2.459-5.117-3.33-1.916-2.728-5.855-4.57-12.106-4.279-8.03-3.433-8.776,10.027-5.829-4.257-9.23-5.276-8.322-2.016-17.957,2.352-13.819,1.654-9.239-1.68-7.977-3.43-.279-.122-10.022-1.983.392-.572.577-.727,1.094-.956,1.1-.731,1.484-.956,2.064-1.407,1.74-1.292,1.354-.956.775-.506,1.033-.62,1.226-.842,1.808-1.015,1.648-.882,1.355-.9,1.224-1.063,2.383-1.968,1.351-1.288,1.739-1.514,1.867-1.628,2.124-1.964,3.283-2.972,3.346-3.252,2.9-2.747,2.835-2.359,4.9-3.319,3.219-2.806,2.6-2,2.835-2.47,2.7-2.466,3.286-2.806,2.643-2.189,1.351-1.233,1.418-1.015,1.484-1.012,1.547-1.178,1.672-1.794,1.868-1.739,1.994-1.9,3.932-3.533,2.407-1.953,2.252-2.13.772-.783.705-1.063.646-.617,1.1-.786,1.351-1.292,2.577-2.411,2.7-2.577,2.64-2.411,1.8-1.794,1.61-1.739,1.994-2.071,1.931-1.794,2.06-2.075,1.026-1.34,1.805-1.794,2.186-2.241,2.451-2.134,1.414-1.344.576-1.119,3.116-3.4,1.805-1.739,2.06-2.071,3.024-2.972,4.825-5.209,3.67-3.7,2.385-2.189,1.805-1.569.51-.949.838-.842,1.351-1.288.9-1.174,1.351-1.292,1.222-1.233,2.407-2.674,1.6-2.07,2.444-2.8,1.934-1.961,1.414-1.512.967-.953,1.226-.954,1.1-.731,1.418-1.178,1.547-1.513,2.256-2.3,2.51-2.577,2.126-1.795,1.37-1.661,7.812,2.254,6.557.954,5.649-2.777,6.25-.787,5.811-1.159,5.527-.16,4.227.721,3.216,1.724" transform="translate(-211.665 2239.019)" fill="rgba(255,255,255,0)" stroke="#fff" stroke-linecap="square" stroke-linejoin="bevel" stroke-width="3" fill-rule="evenodd"/>
      <path id="Path_8415" data-name="Path 8415" d="M722.3,1362.444l9.239,1.68,13.819-1.654,17.957-2.352,8.321,2.016,9.23,5.276,5.83,4.257,8.776-10.027,8.03,3.433,12.106,4.279,5.855,4.571,1.916,2.728,5.117,3.33,3.921,2.459,3.072,1.927.535.336,2.795,3.843,6.6,6.808,4.364.609,12.279,1.72,1.813.255.044.008-.727.9-1.1.894-.654.631-1.362,1.126.177.443.831,1.709.166,1.067-.3.993-.3.665-.48.557-1,.535-1.181.45-.982.4-.879.074-.037-.007-.7-.129-1.063-.576-.919-.476-.041,0-.823-.1-.8.177-.731.406-.768,1.034-.635.986-.347,1.108-.354,1.248-.207,1.218-.14.89-.292,1.1-.72,1.259L847,1419.07l-.414,2.57-.133,1.569-.133,1.056.233,1.982.69,3.327.469,3.456.694,3.64.55,3.906.332,4.382.251,3.452,1.325,9.042.491,5.715.613,3.193,1.078,5.438.465,2.891.694,3.891,1.229,6.343,1.311,7.288,1.314,8.019.321,3.208.709,5.578,1.37,5.715.631,5.028.62,3.581.705,6.572.62,3.577,1.008,6.291.177,3.116-.65,2.175-.72,2.156-1.082,2.023-.786,2.2-.661,1.348-.354,1.521-1.521,2.529-.846,2.75-1.074,3.415-2.953,6.579-3.552,5.641-1.126,1.307-3.917,1.938-5.468,2.108-3.991,2.282-2.2,1.252-2.341,1.152-4.74,2.359-3.356,1.532-13.413,6.752L803.2,1599.1l-4.67,2.079-.642,1.5-.794,1.857-1.152,2.566-.8,1.336-1.514,2.02-1.506,2.245-1.772,2.71-2.477,4.032L786.268,1622l-1.248,2.112-1.617,1.643-1.864,2.252-2.138,2.175-2.134,2.636-1.695,1.794-1.968,2.1-1.4,1.13-.015-.037-.362-.938-2.163-5.608-3.083-6.346-8.92-13.383-6.73-14.1-8.549-18.042-6.12-13.424-10.16,1.768-11.971,2.95-13.825-.292-6.958-2.714-1.066-.413-.514-.2-.353-.207-.653-.384-.659-.388-2.446-1.44-5.513-3.245-7.81-6.457-6.311-8.421.841-5.807-18.68-14.849-2.833-4.932-5.182-8.27-7.266-12.63-5.705-9.577-6.713-8.259-11.886-11.4-12.438-11.312-5.683-2.935.532-.458,1.415-1.237.964-.952,1.031-.731,2.643-1.746,2.463-2.223,3.538-3.035,4.312-3.592,4.433-4.434,4.761-4.043,3.67-2.92,2.377-2.411,3.6-3.2,2.507-2.411,1.031-.731,1.1-.845,1.032-.617,1.226-.735,1.353-.956,1.76-1.421,1.092-1.122,1.159-.953,2.123-1.909.964-.953,1.161-.734,2.382-1.909,1.8-1.462,1.286-1.233,1.286-1.233,2.32-1.687,2.961-2.47,1.094-.956,1.819-2.51,2.954-3.3,2.12-2.186,2.186-2.186,2.573-2.415,4.236-4.873,1.8-1.739,1.091-1.289,1.219-1.455.966-.786,1.356-.735,1.611-1.237,1.87-1.292,1.444-1.045,1.8-1.4.576-.842.9-.9,1.547-1.178,1.865-1.739,1.994-1.964,1.1-.9.577-.727.707-.786,1.8-1.348,1.352-1.178,1.288-1.067.771-.842.838-.62.837-.727.771-.842.185-.21,10.022,1.982.279.122,7.977,3.43" transform="translate(-21.098 1972.423)" fill="rgba(255,255,255,0)" stroke="#fff" stroke-linecap="square" stroke-linejoin="bevel" stroke-width="3" fill-rule="evenodd"/>
      <path id="Path_8416" data-name="Path 8416" d="M600.549,1740.633l13.825.292,11.971-2.95,10.16-1.768,6.12,13.424,8.549,18.042,6.73,14.1,8.92,13.383,3.083,6.346,2.163,5.608.362.938.015.037-.487.513-2.592,2.027-1.872,1.554-1.875,1.562-2.869,2.189-2.6,1.562-2.4,1.787-2.112,1.543-2.592,1.949-4.124,2.895-3.688,1.89-1.983.867-2.871,1.1-3.939,1.5-4.041,1.654-4.6,1.255-3.248,1.322-3.842,2.237-3.868,2.256-10.075,4.415-7.022,3.075-6.764,2.865-2.655,1.916-1.5,1.311-3.711,3.747-2.9,3.555-4.076,4.168-2.334,2.551-3.973,3.16-3.368,2.942-2.586,2.673-1.389.517-7.42,4.774-1.574,1.041-3.966,3.167-8.553,6.741-4.843,3.382-1.795-3.888-1.374-5.464-.013-.029-.56-1.292-1.328-3.622-2.056-5.937-3.136-8.152-2.779-7.646-3.273-10.068-1.925-4.427-1.812-4.929-.851-2.821-5.33-13.859-1.818-5.438-2.906-8.454-5.08-14.188-7.268-20.693-.371-1.813-4.591-12.176-4.711-12.375-3.016-7.543-1.1-3.828-1.086-2.714-.95-.9-.707-.2h-.048l-2.539-.081-4.825-.465v0l-.828-.6-4.445-7.7-1.439-2.714-7.06-11.851-5.616-8.635L445.516,1691l-6.209-9.034L434.334,1675l1.223-.9.9-.62.544-.262,2.316-1.853,2.25-1.968,2.316-1.853,2.7-2.078,1.929-1.632.774-.45.774-.4.707-.617.577-.672.771-.731,1.289-.845,1.544-1.237,1.481-1.067,1.416-1.071,1.091-1.122.7-.838,1.609-1.237,2.507-2.248,1.956-1.828,1.8-1.514,1.608-1.351,1.287-1.067,1.354-.845,1.482-1.067.9-.953,1.35-1.181,1.866-1.573,1.994-1.683,2.636-2.359,2.187-1.853,1.48-1.178,1.735-1.628,1.03-.845.963-1.008,2.383-1.743.947-.834,5.683,2.935,12.438,11.312,11.886,11.4,6.713,8.259,5.705,9.577,7.266,12.63,5.182,8.27,2.833,4.932,18.68,14.849-.841,5.807,6.311,8.421,7.81,6.457,5.513,3.245,2.446,1.44.659.388.653.384.353.207.514.2,1.065.413,6.958,2.714" transform="translate(78.666 1802.18)" fill="rgba(255,255,255,0)" stroke="#fff" stroke-linecap="square" stroke-linejoin="bevel" stroke-width="3" fill-rule="evenodd"/>
    </g>
    <rect id="Rectangle_17767" data-name="Rectangle 17767" width="972" height="972" fill="none"/>
  </g>
</svg>
