<svg xmlns="http://www.w3.org/2000/svg" width="972" height="972" viewBox="0 0 972 972">
  <g id="Map_plots" data-name="Map plots" style="isolation: isolate">
    <g id="Group_49590" data-name="Group 49590" transform="translate(-397.893 -2813.215)">
      <path id="Path_8417" data-name="Path 8417" d="M1796.381,690a6.976,6.976,0,1,1-6.978-6.977,6.977,6.977,0,0,1,6.978,6.977" transform="translate(-771.707 2397.543)" fill="rgba(255,255,255,0)" stroke="#fff" stroke-linecap="square" stroke-linejoin="bevel" stroke-width="3" fill-rule="evenodd"/>
      <path id="Path_8418" data-name="Path 8418" d="M915.312,1626.378a6.977,6.977,0,1,1-6.977-6.978,6.977,6.977,0,0,1,6.977,6.978" transform="translate(-215.919 1806.864)" fill="rgba(255,255,255,0)" stroke="#fff" stroke-linecap="square" stroke-linejoin="bevel" stroke-width="3" fill-rule="evenodd"/>
      <path id="Path_8419" data-name="Path 8419" d="M1952.542,567.833a6.976,6.976,0,1,1-6.978-6.977,6.977,6.977,0,0,1,6.978,6.977" transform="translate(-870.215 2474.605)" fill="rgba(255,255,255,0)" stroke="#fff" stroke-linecap="square" stroke-linejoin="bevel" stroke-width="3" fill-rule="evenodd"/>
      <path id="Path_8420" data-name="Path 8420" d="M658.886,2040.7a6.977,6.977,0,1,1-6.977-6.978,6.976,6.976,0,0,1,6.977,6.978" transform="translate(-54.162 1545.507)" fill="rgba(255,255,255,0)" stroke="#fff" stroke-linecap="square" stroke-linejoin="bevel" stroke-width="3" fill-rule="evenodd"/>
      <path id="Path_8421" data-name="Path 8421" d="M2049.925,441.637a6.978,6.978,0,1,1-6.978-6.977,6.979,6.979,0,0,1,6.978,6.977" transform="translate(-931.643 2554.211)" fill="rgba(255,255,255,0)" stroke="#fff" stroke-linecap="square" stroke-linejoin="bevel" stroke-width="3" fill-rule="evenodd"/>
      <path id="Path_8422" data-name="Path 8422" d="M1195.365,1197.088a6.978,6.978,0,1,1-6.978-6.978,6.978,6.978,0,0,1,6.978,6.978" transform="translate(-392.578 2077.665)" fill="rgba(255,255,255,0)" stroke="#fff" stroke-linecap="square" stroke-linejoin="bevel" stroke-width="3" fill-rule="evenodd"/>
      <path id="Path_8423" data-name="Path 8423" d="M1043.235,1635.6a6.978,6.978,0,1,1-6.978-6.978,6.977,6.977,0,0,1,6.978,6.978" transform="translate(-296.612 1801.048)" fill="rgba(255,255,255,0)" stroke="#fff" stroke-linecap="square" stroke-linejoin="bevel" stroke-width="3" fill-rule="evenodd"/>
      <path id="Path_8424" data-name="Path 8424" d="M1171.735,1745.664a6.978,6.978,0,1,1-6.978-6.974,6.977,6.977,0,0,1,6.978,6.974" transform="translate(-377.671 1731.615)" fill="rgba(255,255,255,0)" stroke="#fff" stroke-linecap="square" stroke-linejoin="bevel" stroke-width="3" fill-rule="evenodd"/>
      <path id="Path_8425" data-name="Path 8425" d="M1430.472,1025.944a6.976,6.976,0,1,1-6.978-6.974,6.977,6.977,0,0,1,6.978,6.974" transform="translate(-540.887 2185.622)" fill="rgba(255,255,255,0)" stroke="#fff" stroke-linecap="square" stroke-linejoin="bevel" stroke-width="3" fill-rule="evenodd"/>
      <path id="Path_8426" data-name="Path 8426" d="M2256.215,526.344a6.978,6.978,0,1,1-6.978-6.977,6.977,6.977,0,0,1,6.978,6.977" transform="translate(-1061.773 2500.777)" fill="rgba(255,255,255,0)" stroke="#fff" stroke-linecap="square" stroke-linejoin="bevel" stroke-width="3" fill-rule="evenodd"/>
    </g>
    <rect id="Rectangle_17767" data-name="Rectangle 17767" width="972" height="972" fill="none"/>
  </g>
</svg>
